<svg width="900" height="600" viewBox="0 0 900 600" fill="none" xmlns="http://www.w3.org/2000/svg"><path d="M220.944 383.875C223.29 443.39 350.36 552.923 488.865 494.962C553.282 468.003 544.431 434.126 590.636 384.046C618.177 354.197 659.476 329.704 667.808 289.293C675.008 254.412 665.218 218.565 644.991 196.551C599.499 147.041 514.337 118.209 441.689 209.766C369.041 301.323 214.912 230.382 220.944 383.875V383.875Z" fill="#F1F1F1"/><path d="M286.974 207.682C297.325 226.157 319.997 228.696 356.319 225.185C383.635 222.54 408.545 220.493 435.864 205.598C454.985 195.181 470.12 181.086 481.167 167.397C493.139 152.566 509.847 135.641 501.656 118.826C490.4 95.7284 425.303 76.2744 362.092 108.087C292.655 143.045 276.847 189.626 286.974 207.682V207.682Z" fill="#F1F1F1"/><path d="M202.752 263.104C229.588 276.416 265.206 259.299 265.206 259.299C265.206 259.299 257.29 220.606 230.44 207.313C203.604 194.001 168 211.099 168 211.099C168 211.099 175.916 249.792 202.752 263.104V263.104Z" fill="#F1F1F1"/><path d="M691.27 447.475C676.69 456.214 655.772 448.136 655.772 448.136C655.772 448.136 658.507 425.892 673.096 417.164C687.677 408.425 708.586 416.493 708.586 416.493C708.586 416.493 705.851 438.736 691.27 447.475V447.475Z" fill="#F1F1F1"/><path d="M201.014 492.582C205.566 492.582 209.256 488.892 209.256 484.34C209.256 479.788 205.566 476.098 201.014 476.098C196.462 476.098 192.772 479.788 192.772 484.34C192.772 488.892 196.462 492.582 201.014 492.582Z" fill="#E1E4E5"/><path d="M688.678 344.91C695.253 344.91 700.584 339.58 700.584 333.004C700.584 326.429 695.253 321.098 688.678 321.098C682.102 321.098 676.772 326.429 676.772 333.004C676.772 339.58 682.102 344.91 688.678 344.91Z" fill="#E1E4E5"/><path d="M201.833 318.22C206.837 318.22 210.894 314.163 210.894 309.159C210.894 304.155 206.837 300.098 201.833 300.098C196.829 300.098 192.772 304.155 192.772 309.159C192.772 314.163 196.829 318.22 201.833 318.22Z" fill="#E1E4E5"/><path d="M278.053 133.601C283.617 133.601 288.127 129.091 288.127 123.527C288.127 117.963 283.617 113.453 278.053 113.453C272.489 113.453 267.979 117.963 267.979 123.527C267.979 129.091 272.489 133.601 278.053 133.601Z" fill="#E1E4E5"/><path d="M663.772 132.144C663.772 137.14 667.822 141.19 672.818 141.19C677.814 141.19 681.864 137.14 681.864 132.144C681.864 127.148 677.814 123.098 672.818 123.098C667.822 123.098 663.772 127.148 663.772 132.144Z" fill="#E1E4E5"/><path d="M573.535 112.07C580.182 112.07 585.57 106.682 585.57 100.035C585.57 93.3882 580.182 88 573.535 88C566.888 88 561.5 93.3882 561.5 100.035C561.5 106.682 566.888 112.07 573.535 112.07Z" fill="#E1E4E5"/><path d="M260.304 320.815C265.417 320.815 269.561 317.499 269.561 313.409C269.561 309.319 265.417 306.003 260.304 306.003C255.192 306.003 251.047 309.319 251.047 313.409C251.047 317.499 255.192 320.815 260.304 320.815Z" fill="#E1E4E5"/><path d="M612.914 100.098H612.782C612.001 111.163 603.772 111.333 603.772 111.333C603.772 111.333 612.846 111.51 612.846 124.295C612.846 111.51 621.92 111.333 621.92 111.333C621.92 111.333 613.695 111.163 612.914 100.098ZM626.7 389.728H626.573C625.823 400.76 617.923 400.93 617.923 400.93C617.923 400.93 626.635 401.106 626.635 413.853C626.635 401.106 635.347 400.93 635.347 400.93C635.347 400.93 627.449 400.76 626.7 389.728Z" fill="#E1E4E5"/><path d="M463.744 165.098C454.889 165.098 447.772 172.08 447.772 180.626C447.772 189.172 454.945 196.098 463.8 196.098C472.654 196.098 479.772 189.172 479.772 180.57C479.828 172.08 472.654 165.098 463.744 165.098Z" stroke="white" stroke-width="48.925" stroke-linecap="round" stroke-linejoin="round"/><path d="M645.385 225.098C640.076 225.098 635.772 229.402 635.772 234.711C635.772 240.02 640.076 244.324 645.385 244.324C650.694 244.324 654.998 240.02 654.998 234.711C654.998 229.402 650.694 225.098 645.385 225.098Z" fill="#FF8B03"/><path d="M348.94 440.317C338.955 440.317 330.86 448.412 330.86 458.397C330.86 468.382 338.955 476.477 348.94 476.477C358.925 476.477 367.02 468.382 367.02 458.397C367.02 448.412 358.925 440.317 348.94 440.317Z" fill="#FF8B03"/><path d="M607.124 504.802C599.198 504.802 592.772 498.377 592.772 490.45C592.772 482.524 599.198 476.098 607.124 476.098C615.05 476.098 621.476 482.524 621.476 490.45C621.476 498.377 615.05 504.802 607.124 504.802Z" fill="#FF8B03"/><path d="M220.381 159.316C215.074 159.316 210.772 155.014 210.772 149.707C210.772 144.4 215.074 140.098 220.381 140.098C225.688 140.098 229.99 144.4 229.99 149.707C229.99 155.014 225.688 159.316 220.381 159.316Z" fill="#FF8B03"/><path fill-rule="evenodd" clip-rule="evenodd" d="M417.997 150.098C414.121 152.97 410.678 156.704 407.927 161.298C395.224 182.507 386.15 205.476 380.706 229.2C360.624 226.49 341.134 222.372 322.849 216.847C342.409 182.005 377.089 156.791 417.997 150.098V150.098ZM318.216 225.888C337.301 231.77 357.671 236.145 378.668 239.014C373.219 268.366 373.218 298.471 378.664 327.823C357.988 330.65 337.921 334.937 319.091 340.685C310.557 323.053 305.772 303.267 305.772 282.364C305.772 262.187 310.23 243.051 318.216 225.888V225.888ZM323.88 349.685C343.082 382.678 375.965 406.727 414.757 414.059C412.192 411.662 409.885 408.829 407.928 405.561C395.221 384.346 386.145 361.369 380.701 337.638C360.997 340.298 341.863 344.314 323.88 349.685V349.685ZM390.682 336.412C395.919 358.777 404.527 380.422 416.507 400.422V400.423C427.304 418.457 452.315 418.457 463.112 400.423L463.113 400.422C475.092 380.422 483.7 358.777 488.937 336.412C456.601 332.826 423.016 332.826 390.682 336.412ZM498.918 337.638C493.474 361.369 484.399 384.346 471.692 405.561C469.735 408.828 467.429 411.659 464.866 414.056C503.653 406.719 536.53 382.67 555.729 349.68C537.748 344.311 518.617 340.297 498.918 337.638V337.638ZM560.517 340.679C541.689 334.934 521.626 330.649 500.955 327.823C506.402 298.47 506.4 268.364 500.951 239.011C521.943 236.141 542.308 231.765 561.387 225.883C569.374 243.047 573.834 262.185 573.834 282.364C573.834 303.265 569.05 323.048 560.517 340.679ZM491.014 326.582C457.319 322.769 422.298 322.769 388.606 326.582C383.238 298.057 383.239 268.78 388.61 240.255C422.302 244.067 457.32 244.066 491.009 240.252C496.381 268.778 496.382 298.056 491.014 326.582ZM390.687 230.426C423.021 234.01 456.601 234.009 488.932 230.423C483.694 208.066 475.088 186.429 463.113 166.436C452.299 148.399 427.303 148.404 416.507 166.435V166.436C404.531 186.43 395.925 208.068 390.687 230.426V230.426ZM498.913 229.196C518.99 226.485 538.475 222.367 556.754 216.841C537.194 182.004 502.519 156.794 461.617 150.099C465.493 152.971 468.938 156.704 471.691 161.296L471.692 161.298C484.394 182.506 493.468 205.474 498.913 229.196V229.196Z" fill="#FF8B03"/><path fill-rule="evenodd" clip-rule="evenodd" d="M540.772 419.798C569.933 419.798 593.572 397.77 593.572 370.598C593.572 343.426 569.933 321.398 540.772 321.398C511.611 321.398 487.972 343.426 487.972 370.598C487.972 397.77 511.611 419.798 540.772 419.798V419.798ZM540.772 432.098C577.223 432.098 606.772 404.563 606.772 370.598C606.772 336.633 577.223 309.098 540.772 309.098C504.321 309.098 474.772 336.633 474.772 370.598C474.772 404.563 504.321 432.098 540.772 432.098Z" fill="white"/><path d="M540.772 422.098C571.7 422.098 596.772 398.593 596.772 369.598C596.772 340.603 571.7 317.098 540.772 317.098C509.844 317.098 484.772 340.603 484.772 369.598C484.772 398.593 509.844 422.098 540.772 422.098Z" fill="#FF8B03"/><path d="M534.772 387.098C521.517 387.098 510.772 376.801 510.772 364.098C510.772 351.396 521.517 341.098 534.772 341.098C548.027 341.098 558.772 351.396 558.772 364.098C558.772 376.801 548.027 387.098 534.772 387.098Z" stroke="white" stroke-width="6" stroke-linecap="round" stroke-linejoin="round"/><path d="M556.85 380.098L570.058 390.664C570.598 391.119 571.028 391.666 571.323 392.272C571.617 392.878 571.77 393.53 571.772 394.189C571.774 394.847 571.625 395.5 571.334 396.107C571.043 396.714 570.616 397.263 570.079 397.721C569.542 398.179 568.905 398.537 568.207 398.773C567.509 399.009 566.764 399.119 566.017 399.095C565.27 399.071 564.536 398.915 563.86 398.635C563.183 398.356 562.577 397.959 562.078 397.468L550.772 385.692" stroke="white" stroke-width="6" stroke-linecap="round" stroke-linejoin="round"/></svg>