<svg width="900" height="600" viewBox="0 0 900 600" fill="none" xmlns="http://www.w3.org/2000/svg"><path d="M645.806 238.607C633.431 246.537 618.72 240.684 597.627 226.667C581.766 216.123 567.183 206.731 555.322 188.685C547.018 176.059 542.355 162.484 540.064 150.493C537.58 137.501 532.879 121.679 543.388 114.059C557.827 103.594 604.041 112.951 632.351 153.083C663.445 197.174 657.906 230.86 645.806 238.607Z" fill="#F1F1F1"/><path d="M722.891 367.562C706.934 375.478 685.756 365.3 685.756 365.3C685.756 365.3 690.463 342.293 706.428 334.389C722.385 326.473 743.555 336.64 743.555 336.64C743.555 336.64 738.848 359.647 722.891 367.562Z" fill="#F1F1F1"/><path d="M205.71 204.9C231.538 220.38 268.593 206.07 268.593 206.07C268.593 206.07 263.748 166.669 237.905 151.206C212.077 135.727 175.037 150.019 175.037 150.019C175.037 150.019 179.883 189.421 205.71 204.9V204.9Z" fill="#F1F1F1"/><path d="M728.192 193.977C719.13 193.977 711.784 201.323 711.784 210.385C711.784 219.447 719.13 226.793 728.192 226.793C737.254 226.793 744.6 219.447 744.6 210.385C744.6 201.323 737.254 193.977 728.192 193.977Z" fill="#FF8B03"/><path d="M239.441 256.007C231.981 256.007 225.933 262.055 225.933 269.515C225.933 276.975 231.981 283.023 239.441 283.023C246.901 283.023 252.949 276.975 252.949 269.515C252.949 262.055 246.901 256.007 239.441 256.007Z" fill="#FF8B03"/><path d="M309.52 533.336C301.024 533.336 294.137 526.449 294.137 517.953C294.137 509.457 301.024 502.57 309.52 502.57C318.016 502.57 324.903 509.457 324.903 517.953C324.903 526.449 318.016 533.336 309.52 533.336Z" fill="#FF8B03"/><path d="M751.446 399.755C747.481 399.755 744.267 396.541 744.267 392.576C744.267 388.611 747.481 385.397 751.446 385.397C755.411 385.397 758.625 388.611 758.625 392.576C758.625 396.541 755.411 399.755 751.446 399.755Z" fill="#FF8B03"/><path d="M528.23 521.46C523.132 521.46 519 517.328 519 512.23C519 507.132 523.132 503 528.23 503C533.328 503 537.46 507.132 537.46 512.23C537.46 517.328 533.328 521.46 528.23 521.46Z" fill="#E1E4E5"/><path d="M186.816 446.865C179.453 446.865 173.484 440.896 173.484 433.533C173.484 426.17 179.453 420.201 186.816 420.201C194.179 420.201 200.148 426.17 200.148 433.533C200.148 440.896 194.179 446.865 186.816 446.865Z" fill="#E1E4E5"/><path d="M740.421 517.458C734.817 517.458 730.274 512.915 730.274 507.311C730.274 501.707 734.817 497.164 740.421 497.164C746.025 497.164 750.568 501.707 750.568 507.311C750.568 512.915 746.025 517.458 740.421 517.458Z" fill="#E1E4E5"/><path d="M210.281 182.562C204.051 182.562 199 177.511 199 171.281C199 165.051 204.051 160 210.281 160C216.511 160 221.562 165.051 221.562 171.281C221.562 177.511 216.511 182.562 210.281 182.562Z" fill="#E1E4E5"/><path d="M163.191 293.091C164.639 298.495 161.432 304.05 156.028 305.498C150.624 306.946 145.07 303.739 143.622 298.335C142.174 292.931 145.381 287.376 150.785 285.928C156.189 284.48 161.743 287.687 163.191 293.091Z" fill="#E1E4E5"/><path d="M348.185 99.6361C345.857 99.6361 343.969 97.7485 343.969 95.4201C343.969 93.0917 345.857 91.2041 348.185 91.2041C350.513 91.2041 352.401 93.0917 352.401 95.4201C352.401 97.7485 350.513 99.6361 348.185 99.6361Z" fill="#E1E4E5"/><path d="M722.15 441.428C716.425 441.428 711.784 437.715 711.784 433.135C711.784 428.555 716.425 424.842 722.15 424.842C727.875 424.842 732.516 428.555 732.516 433.135C732.516 437.715 727.875 441.428 722.15 441.428Z" fill="#E1E4E5"/><path d="M689.741 299.549C689.741 181.076 593.59 84.9248 475.117 84.9248C356.645 84.9248 260.493 181.076 260.493 299.549C260.493 418.021 356.645 514.172 475.117 514.172" stroke="#E1E4E5" stroke-width="24" stroke-linecap="round" stroke-linejoin="round"/><path d="M539.504 106.387C560.323 169.057 570.84 234.303 570.84 299.549M389.27 106.387H410.732C368.881 231.761 368.881 367.336 410.732 492.71H389.27V106.387Z" stroke="#E1E4E5" stroke-width="24" stroke-linecap="round" stroke-linejoin="round"/><path d="M689.741 514.172L668.279 492.71M281.956 385.398V363.936C344.626 384.755 409.872 395.272 475.117 395.272L281.956 385.398ZM281.956 235.164C407.33 193.312 542.905 193.312 668.279 235.164H281.956ZM608.184 501.295C646.115 501.295 676.864 470.546 676.864 432.615C676.864 394.685 646.115 363.936 608.184 363.936C570.253 363.936 539.504 394.685 539.504 432.615C539.504 470.546 570.253 501.295 608.184 501.295V501.295Z" stroke="#E1E4E5" stroke-width="24" stroke-linecap="round" stroke-linejoin="round"/><path d="M405.577 232.514H542.504V343.71H405.577V232.514Z" fill="#FF8B03"/><path fill-rule="evenodd" clip-rule="evenodd" d="M425.633 259.535C426.829 258.099 428.547 257.198 430.408 257.029C432.268 256.86 434.12 257.437 435.556 258.633L468.808 286.343C470.074 287.398 471.67 287.976 473.318 287.976C474.966 287.976 476.562 287.398 477.828 286.343L511.08 258.633C512.518 257.462 514.36 256.905 516.207 257.083C518.053 257.261 519.755 258.161 520.942 259.586C522.13 261.011 522.707 262.846 522.55 264.695C522.392 266.543 521.512 268.254 520.101 269.458L486.849 297.168C479.011 303.7 467.625 303.7 459.787 297.168L426.535 269.458C425.1 268.262 424.198 266.544 424.029 264.683C423.86 262.822 424.437 260.97 425.633 259.535V259.535Z" fill="white"/><path fill-rule="evenodd" clip-rule="evenodd" d="M530.864 241.091H418.136C416.268 241.091 414.476 241.833 413.154 243.154C411.833 244.476 411.091 246.268 411.091 248.136V332.681C411.091 333.606 411.273 334.522 411.627 335.377C411.981 336.232 412.5 337.009 413.154 337.663C413.808 338.318 414.585 338.837 415.44 339.191C416.295 339.545 417.211 339.727 418.136 339.727H530.864C531.789 339.727 532.705 339.545 533.56 339.191C534.415 338.837 535.192 338.318 535.846 337.663C536.5 337.009 537.019 336.232 537.373 335.377C537.727 334.522 537.909 333.606 537.909 332.681V248.136C537.909 246.268 537.167 244.476 535.846 243.154C534.524 241.833 532.732 241.091 530.864 241.091V241.091ZM418.136 227C406.463 227 397 236.463 397 248.136V332.681C397 344.355 406.463 353.818 418.136 353.818H530.864C542.537 353.818 552 344.355 552 332.681V248.136C552 236.463 542.537 227 530.864 227H418.136V227Z" fill="#FF8B03"/><path d="M617.577 48.5142H754.504V159.71H617.577V48.5142Z" fill="#E1E4E5"/><path fill-rule="evenodd" clip-rule="evenodd" d="M742.864 57.091H630.136C628.268 57.091 626.476 57.8332 625.154 59.1544C623.833 60.4756 623.091 62.2676 623.091 64.136V148.681C623.091 149.606 623.273 150.522 623.627 151.377C623.981 152.232 624.5 153.009 625.154 153.663C625.808 154.318 626.585 154.837 627.44 155.191C628.295 155.545 629.211 155.727 630.136 155.727H742.864C743.789 155.727 744.705 155.545 745.56 155.191C746.415 154.837 747.192 154.318 747.846 153.663C748.5 153.009 749.019 152.232 749.373 151.377C749.727 150.522 749.909 149.606 749.909 148.681V64.136C749.909 62.2676 749.167 60.4756 747.846 59.1544C746.524 57.8332 744.732 57.091 742.864 57.091ZM630.136 43C618.463 43 609 52.463 609 64.136V148.681C609 160.355 618.463 169.818 630.136 169.818H742.864C754.537 169.818 764 160.355 764 148.681V64.136C764 52.463 754.537 43 742.864 43H630.136V43Z" fill="#E1E4E5"/><path fill-rule="evenodd" clip-rule="evenodd" d="M638.815 73.717C640.011 72.2816 641.729 71.3802 643.59 71.2111C645.451 71.0419 647.302 71.6188 648.738 72.815L681.99 100.525C683.256 101.58 684.852 102.158 686.5 102.158C688.148 102.158 689.744 101.58 691.01 100.525L724.262 72.815C725.7 71.6437 727.542 71.0868 729.389 71.2652C731.235 71.4435 732.937 72.3427 734.124 73.7677C735.312 75.1927 735.889 77.0285 735.732 78.8767C735.574 80.7249 734.694 82.4365 733.283 83.64L700.031 111.35C692.193 117.882 680.807 117.882 672.969 111.35L639.717 83.64C638.282 82.4437 637.38 80.7262 637.211 78.8653C637.042 77.0044 637.619 75.1525 638.815 73.717V73.717Z" fill="white"/><path d="M341.778 202H324C306.327 202 292 187.673 292 170C292 152.327 306.327 138 324 138C341.673 138 356 152.327 356 170V175.333C356 180.243 352.02 184.222 347.111 184.222C342.202 184.222 338.222 180.243 338.222 175.333V170C338.222 162.145 331.855 155.778 324 155.778C316.145 155.778 309.778 162.145 309.778 170C309.778 177.855 316.145 184.222 324 184.222C331.855 184.222 338.222 177.855 338.222 170" stroke="#FF8B03" stroke-width="10" stroke-linecap="round" stroke-linejoin="round"/><path fill-rule="evenodd" clip-rule="evenodd" d="M307.267 465.533C281.164 465.533 260 444.37 260 418.267C260 392.164 281.164 371 307.267 371C333.37 371 354.533 392.164 354.533 418.267C354.533 444.37 333.37 465.533 307.267 465.533V465.533Z" fill="#FF8B03"/><path d="M320.846 411.796L303.902 429.052L293.73 418.7" stroke="white" stroke-width="4.719" stroke-linecap="round" stroke-linejoin="round"/></svg>