<svg width="900" height="600" viewBox="0 0 900 600" fill="none" xmlns="http://www.w3.org/2000/svg"><path d="M366.138 223.008C436.796 219.008 510.877 239.842 499.988 270.044C489.098 300.247 558.206 259.317 585.784 270.206C605.418 277.958 597.57 301.559 607.068 311.068C628.847 332.871 651.122 305.415 678.84 321.889C706.558 338.363 649.809 492.115 620.851 492.973L290.572 491.016L266.87 488.938C266.87 488.938 201.308 453.963 248.207 421.7C279.919 399.885 257.102 384.043 253.652 374.056C249.693 362.589 240.454 342.562 280.712 327.865C320.97 313.169 310.576 281.189 309.585 274.569C308.596 267.945 295.481 227.008 366.138 223.008Z" fill="url(#paint0_linear_17:51)"/><path d="M623.524 447.582V289.047C623.524 268.353 606.748 251.576 586.053 251.576L352.871 251.576C332.176 251.576 315.4 268.353 315.4 289.047V447.582C315.4 468.277 332.176 485.053 352.871 485.053H586.053C606.748 485.053 623.524 468.277 623.524 447.582Z" fill="white" stroke="#E1E4E5" stroke-width="4.684"/><path d="M537 423C537 423 510.573 397.95 466.5 397.95C422.428 397.95 396 423 396 423M426.24 313V332.937V313ZM506.909 313V332.937V313Z" stroke="#FF8B03" stroke-width="20" stroke-linecap="round" stroke-linejoin="round"/><path d="M672.483 471.964H267.329C263.449 471.964 260.303 475.11 260.303 478.99V482.471C260.303 486.351 263.449 489.497 267.329 489.497H672.483C676.363 489.497 679.509 486.351 679.509 482.471V478.99C679.509 475.11 676.363 471.964 672.483 471.964Z" fill="white" stroke="#E1E4E5" stroke-width="4.684"/><path fill-rule="evenodd" clip-rule="evenodd" d="M593 202.543V169.457C593 158.327 599.438 148.038 609.894 142.438L643.894 124.242C649.087 121.464 654.988 120 660.996 120C667.004 120 672.905 121.464 678.098 124.242L712.098 142.438C722.562 148.038 729 158.327 729 169.457V202.543C729 213.673 722.562 223.962 712.106 229.562L678.106 247.758C672.913 250.536 667.012 252 661.004 252C654.996 252 649.095 250.536 643.902 247.758L609.902 229.562C599.438 223.962 593 213.673 593 202.543V202.543Z" fill="#FF8B03" stroke="#FF8B03" stroke-width="21.417" stroke-linecap="round" stroke-linejoin="round"/><path d="M660.992 210.554C659.888 210.554 658.992 211.331 659 212.29C659.008 212.746 659.222 213.181 659.596 213.501C659.971 213.821 660.475 214 661 214C661.525 214 662.029 213.821 662.404 213.501C662.778 213.181 662.992 212.746 663 212.29C663 212.061 662.947 211.835 662.846 211.624C662.745 211.413 662.597 211.222 662.411 211.06C662.224 210.899 662.003 210.771 661.759 210.685C661.516 210.598 661.255 210.553 660.992 210.554M661 186.249V155V186.249Z" stroke="white" stroke-width="18" stroke-linecap="round" stroke-linejoin="round"/><path d="M735.925 307.966C716.147 312.651 695.229 295.878 695.229 295.878C695.229 295.878 706.392 271.517 726.176 266.847C745.954 262.161 766.865 278.92 766.865 278.92C766.865 278.92 755.702 303.28 735.925 307.966V307.966Z" fill="url(#paint1_linear_17:51)"/><path d="M134.823 316.782C115.045 321.467 94.127 304.694 94.127 304.694C94.127 304.694 105.29 280.334 125.074 275.663C144.852 270.978 165.763 287.736 165.763 287.736C165.763 287.736 154.6 312.097 134.823 316.782V316.782Z" fill="url(#paint2_linear_17:51)"/><path d="M398.081 183.282C422.862 178.272 437.754 148.429 437.754 148.429C437.754 148.429 412.455 126.726 387.674 131.756C362.892 136.766 348 166.589 348 166.589C348 166.589 373.299 188.292 398.081 183.282V183.282Z" fill="url(#paint3_linear_17:51)"/><path d="M729.337 458.508C760.727 451.296 778.688 412.791 778.688 412.791C778.688 412.791 745.742 386.003 714.352 393.241C682.962 400.454 665 438.933 665 438.933C665 438.933 697.947 465.721 729.337 458.508V458.508Z" fill="url(#paint4_linear_17:51)"/><path d="M782.745 350.809C773.48 350.809 765.97 357.993 765.97 366.855C765.97 375.717 773.48 382.901 782.745 382.901C792.01 382.901 799.52 375.717 799.52 366.855C799.52 357.993 792.01 350.809 782.745 350.809Z" fill="#FF8B03"/><path d="M196.604 460C188.538 460 182 466.538 182 474.604C182 482.67 188.538 489.208 196.604 489.208C204.67 489.208 211.208 482.67 211.208 474.604C211.208 466.538 204.67 460 196.604 460Z" fill="#FF8B03"/><path d="M233.936 219.792C229.505 219.792 225.913 216.2 225.913 211.769C225.913 207.338 229.505 203.746 233.936 203.746C238.367 203.746 241.959 207.338 241.959 211.769C241.959 216.2 238.367 219.792 233.936 219.792Z" fill="#FF8B03"/><path d="M765.94 168.781C758.495 168.781 752.459 162.494 752.459 154.738C752.459 146.982 758.495 140.695 765.94 140.695C773.385 140.695 779.421 146.982 779.421 154.738C779.421 162.494 773.385 168.781 765.94 168.781Z" fill="#FF8B03"/><path d="M140.762 402.45C134.868 402.45 130.09 397.672 130.09 391.778C130.09 385.884 134.868 381.106 140.762 381.106C146.656 381.106 151.434 385.884 151.434 391.778C151.434 397.672 146.656 402.45 140.762 402.45Z" fill="#FF8B03"/><path d="M531 220C523.82 220 518 214.404 518 207.5C518 200.596 523.82 195 531 195C538.18 195 544 200.596 544 207.5C544 214.404 538.18 220 531 220Z" fill="#E1E4E5"/><path d="M225.811 314.765C221.09 314.765 217.263 310.938 217.263 306.217C217.263 301.496 221.09 297.669 225.811 297.669C230.532 297.669 234.359 301.496 234.359 306.217C234.359 310.938 230.532 314.765 225.811 314.765Z" fill="#E1E4E5"/><path d="M458.5 195C454.358 195 451 191.418 451 187C451 182.582 454.358 179 458.5 179C462.642 179 466 182.582 466 187C466 191.418 462.642 195 458.5 195Z" fill="#E1E4E5"/><path d="M524.96 76.6442C520.932 76.6442 517.666 73.3785 517.666 69.3502C517.666 65.3218 520.932 62.0562 524.96 62.0562C528.988 62.0562 532.254 65.3218 532.254 69.3502C532.254 73.3785 528.988 76.6442 524.96 76.6442Z" fill="#E1E4E5"/><path d="M197.38 357.659C198.399 361.461 196.142 365.369 192.34 366.388C188.538 367.406 184.63 365.15 183.611 361.348C182.593 357.546 184.849 353.638 188.651 352.619C192.453 351.601 196.361 353.857 197.38 357.659Z" fill="#E1E4E5"/><path d="M249.19 62.4591C243.953 62.4591 239.708 58.2139 239.708 52.9771C239.708 47.7404 243.953 43.4951 249.19 43.4951C254.427 43.4951 258.672 47.7404 258.672 52.9771C258.672 58.2139 254.427 62.4591 249.19 62.4591Z" fill="#E1E4E5"/><path d="M518.294 174.67C514.266 174.67 511 172.058 511 168.835C511 165.612 514.266 163 518.294 163C522.322 163 525.588 165.612 525.588 168.835C525.588 172.058 522.322 174.67 518.294 174.67Z" fill="#E1E4E5"/><path d="M609.861 106.264C611.981 114.177 607.286 122.311 599.373 124.431C591.46 126.551 583.326 121.855 581.206 113.942C579.086 106.029 583.782 97.8959 591.695 95.7757C599.607 93.6554 607.741 98.3513 609.861 106.264Z" fill="#E1E4E5"/><path d="M798.774 202.51H798.965C800.095 218.519 812 218.765 812 218.765C812 218.765 798.872 219.021 798.872 237.519C798.872 219.021 785.743 218.765 785.743 218.765C785.743 218.765 797.644 218.519 798.774 202.51V202.51ZM168.026 134.539H168.355C170.301 162.555 190.805 162.986 190.805 162.986C190.805 162.986 168.195 163.434 168.195 195.806C168.195 163.434 145.585 162.986 145.585 162.986C145.585 162.986 166.08 162.555 168.026 134.539V134.539Z" fill="#E1E4E5"/><defs><linearGradient id="paint0_linear_17:51" x1="468.483" y1="644.607" x2="463.525" y2="-71.7578" gradientUnits="userSpaceOnUse"><stop stop-color="white"/><stop offset="1" stop-color="#EEEEEE"/></linearGradient><linearGradient id="paint1_linear_17:51" x1="661.447" y1="319.615" x2="834.581" y2="237.821" gradientUnits="userSpaceOnUse"><stop stop-color="white"/><stop offset="1" stop-color="#EEEEEE"/></linearGradient><linearGradient id="paint2_linear_17:51" x1="60.345" y1="328.431" x2="233.479" y2="246.637" gradientUnits="userSpaceOnUse"><stop stop-color="white"/><stop offset="1" stop-color="#EEEEEE"/></linearGradient><linearGradient id="paint3_linear_17:51" x1="488.279" y1="157.646" x2="250.099" y2="155.437" gradientUnits="userSpaceOnUse"><stop stop-color="white"/><stop offset="1" stop-color="#EEEEEE"/></linearGradient><linearGradient id="paint4_linear_17:51" x1="843.34" y1="422.83" x2="539.952" y2="428.022" gradientUnits="userSpaceOnUse"><stop stop-color="white"/><stop offset="1" stop-color="#EEEEEE"/></linearGradient></defs></svg>