<svg width="900" height="600" viewBox="0 0 900 600" fill="none" xmlns="http://www.w3.org/2000/svg"><path fill-rule="evenodd" clip-rule="evenodd" d="M132.875 497H813.567C877.463 497 874.531 443.954 853.66 425.47C832.268 406.526 790.001 414.21 790.001 414.21C790.001 414.21 777.416 378.53 735.996 361.159C699.358 345.794 660.976 353.105 660.976 353.105C660.976 353.105 660.976 328.618 637.517 308.338C614.057 288.056 582.778 290.028 582.778 290.028C582.778 290.028 561.276 155 417.588 155C273.901 155 257.285 282.14 257.285 282.14C257.285 282.14 225.028 282.14 201.567 303.826C178.108 325.509 175.176 350.146 175.176 350.146C175.176 350.146 96.721 339.488 73.518 407.728C59.69 448.399 88.1 497 132.875 497Z" fill="#F1F1F1"/><path d="M312.063 245.54C265.586 332.863 286.365 419.651 370.772 464.446C455.179 509.24 541.978 488.5 589.704 405.836C637.431 323.172 606.086 234.22 530.996 186.93C455.906 139.641 358.541 158.217 312.063 245.54V245.54Z" fill="#FF8B03" stroke="white" stroke-width="10" stroke-linecap="round" stroke-linejoin="round"/><path d="M540.358 193.51C495.528 179.529 482.361 211.605 481.417 237.511C480.473 263.417 559.163 297.834 544.53 345.467C532.925 383.243 447.791 342.177 430.283 372.502C412.775 402.827 459.771 424.72 425.41 484.236" stroke="white" stroke-width="10" stroke-linejoin="round"/><path d="M407.501 167.063C427.339 178.517 430.744 227.101 412.032 234.253C399.557 239.021 383.184 233.088 374.518 243.047C360.652 258.982 403.525 283.734 376.23 315.856C362.583 331.917 300.661 328.276 293.944 375.27" stroke="white" stroke-width="10"/><path d="M329.878 259.844C328.478 260.963 327.249 261.895 326.254 262.628C325.259 261.895 324.03 260.963 322.63 259.844C318.729 256.727 313.536 252.194 308.357 246.534C297.874 235.076 288.083 219.699 288.083 202.539C288.083 179.564 305.471 161.497 326.254 161.497C347.038 161.497 364.426 179.564 364.426 202.539C364.426 219.699 354.635 235.076 344.151 246.534C338.972 252.194 333.779 256.727 329.878 259.844Z" fill="#FF8B03" stroke="white" stroke-width="10"/><path d="M326.255 182.401C316.717 182.401 308.986 190.132 308.986 199.669C308.986 209.206 316.717 216.938 326.255 216.938C335.792 216.938 343.523 209.206 343.523 199.669C343.523 190.132 335.792 182.401 326.255 182.401Z" fill="white"/><path d="M570.935 293.676C569.535 294.795 568.306 295.728 567.311 296.46C566.316 295.728 565.087 294.795 563.687 293.676C559.786 290.559 554.593 286.026 549.414 280.366C538.93 268.909 529.139 253.532 529.139 236.371C529.139 213.397 546.528 195.33 567.311 195.33C588.094 195.33 605.483 213.397 605.483 236.371C605.483 253.532 595.692 268.909 585.208 280.366C580.029 286.026 574.836 290.559 570.935 293.676Z" fill="#FF8B03" stroke="white" stroke-width="10"/><path d="M567.311 216.233C557.774 216.233 550.042 223.964 550.042 233.502C550.042 243.039 557.774 250.77 567.311 250.77C576.848 250.77 584.58 243.039 584.58 233.502C584.58 223.964 576.848 216.233 567.311 216.233Z" fill="white"/><path d="M355.253 492.442C353.853 493.561 352.624 494.494 351.629 495.226C350.634 494.494 349.405 493.561 348.005 492.442C344.104 489.325 338.911 484.792 333.732 479.132C323.248 467.675 313.457 452.298 313.457 435.137C313.457 412.163 330.846 394.096 351.629 394.096C372.412 394.096 389.801 412.163 389.801 435.137C389.801 452.298 380.01 467.675 369.526 479.132C364.347 484.792 359.154 489.325 355.253 492.442Z" fill="#FF8B03" stroke="white" stroke-width="10"/><path d="M351.629 414.999C342.092 414.999 334.36 422.73 334.36 432.268C334.36 441.805 342.092 449.536 351.629 449.536C361.166 449.536 368.897 441.805 368.897 432.268C368.897 422.73 361.166 414.999 351.629 414.999Z" fill="white"/><path d="M746.004 174.911C737.536 190.024 718.989 192.1 689.277 189.228C666.932 187.064 646.554 185.39 624.207 173.206C608.565 164.684 596.184 153.154 587.147 141.956C577.354 129.824 563.686 115.979 570.386 102.224C579.595 83.3279 632.846 67.4139 684.554 93.4389C741.356 122.035 754.288 160.14 746.004 174.911V174.911Z" fill="#F1F1F1"/><path d="M833.08 255.612C814.118 265.018 788.95 252.924 788.95 252.924C788.95 252.924 794.544 225.584 813.516 216.19C832.478 206.784 857.636 218.866 857.636 218.866C857.636 218.866 852.042 246.206 833.08 255.612Z" fill="#F1F1F1"/><path d="M72.346 374.39C93.383 386.998 123.564 375.343 123.564 375.343C123.564 375.343 119.618 343.25 98.568 330.656C77.531 318.048 47.363 329.689 47.363 329.689C47.363 329.689 51.309 361.782 72.346 374.39V374.39Z" fill="#F1F1F1"/><path d="M736.395 206.856C726.875 206.856 719.158 214.573 719.158 224.093C719.158 233.613 726.875 241.33 736.395 241.33C745.915 241.33 753.632 233.613 753.632 224.093C753.632 214.573 745.915 206.856 736.395 206.856Z" fill="#FF8B03"/><path d="M435.19 105C427.353 105 421 111.353 421 119.19C421 127.027 427.353 133.38 435.19 133.38C443.027 133.38 449.38 127.027 449.38 119.19C449.38 111.353 443.027 105 435.19 105Z" fill="#FF8B03"/><path d="M173.449 435.324C164.524 435.324 157.289 428.089 157.289 419.164C157.289 410.239 164.524 403.004 173.449 403.004C182.374 403.004 189.609 410.239 189.609 419.164C189.609 428.089 182.374 435.324 173.449 435.324Z" fill="#FF8B03"/><path d="M787.441 323.176C783.276 323.176 779.9 319.8 779.9 315.635C779.9 311.47 783.276 308.094 787.441 308.094C791.606 308.094 794.982 311.47 794.982 315.635C794.982 319.8 791.606 323.176 787.441 323.176Z" fill="#FF8B03"/><path d="M642.696 485.392C637.341 485.392 633 481.051 633 475.696C633 470.341 637.341 466 642.696 466C648.051 466 652.392 470.341 652.392 475.696C652.392 481.051 648.051 485.392 642.696 485.392Z" fill="#E1E4E5"/><path d="M118.145 466.447C110.41 466.447 104.14 460.177 104.14 452.442C104.14 444.707 110.41 438.437 118.145 438.437C125.88 438.437 132.15 444.707 132.15 452.442C132.15 460.177 125.88 466.447 118.145 466.447Z" fill="#E1E4E5"/><path d="M827.258 454.693C821.371 454.693 816.599 449.921 816.599 444.034C816.599 438.147 821.371 433.375 827.258 433.375C833.145 433.375 837.917 438.147 837.917 444.034C837.917 449.921 833.145 454.693 827.258 454.693Z" fill="#E1E4E5"/><path d="M743.432 119.522C736.887 119.522 731.581 114.216 731.581 107.671C731.581 101.126 736.887 95.8198 743.432 95.8198C749.977 95.8198 755.283 101.126 755.283 107.671C755.283 114.216 749.977 119.522 743.432 119.522Z" fill="#E1E4E5"/><path d="M121.124 269.02C122.645 274.697 119.276 280.532 113.599 282.053C107.922 283.575 102.087 280.206 100.566 274.528C99.0443 268.851 102.413 263.016 108.091 261.495C113.768 259.973 119.603 263.343 121.124 269.02Z" fill="#E1E4E5"/><path d="M332.556 65.1241C330.11 65.1241 328.127 63.1412 328.127 60.6951C328.127 58.249 330.11 56.2661 332.556 56.2661C335.002 56.2661 336.985 58.249 336.985 60.6951C336.985 63.1412 335.002 65.1241 332.556 65.1241Z" fill="#E1E4E5"/><path d="M760.419 400.18C754.405 400.18 749.529 396.279 749.529 391.468C749.529 386.656 754.405 382.756 760.419 382.756C766.433 382.756 771.309 386.656 771.309 391.468C771.309 396.279 766.433 400.18 760.419 400.18Z" fill="#E1E4E5"/><path d="M528.496 62.4424C529.598 66.5522 527.159 70.7766 523.049 71.8778C518.939 72.979 514.715 70.5401 513.613 66.4303C512.512 62.3204 514.951 58.0961 519.061 56.9948C523.171 55.8936 527.395 58.3326 528.496 62.4424Z" fill="#E1E4E5"/><path d="M200.786 133.459H200.941C201.86 146.475 211.54 146.675 211.54 146.675C211.54 146.675 200.865 146.884 200.865 161.923C200.865 146.884 190.191 146.675 190.191 146.675C190.191 146.675 199.867 146.475 200.786 133.459V133.459ZM194.036 515.63H194.185C195.067 528.608 204.36 528.807 204.36 528.807C204.36 528.807 194.112 529.015 194.112 544.01C194.112 529.015 183.864 528.807 183.864 528.807C183.864 528.807 193.154 528.608 194.036 515.63V515.63Z" fill="#E1E4E5"/></svg>