<svg width="900" height="600" viewBox="0 0 900 600" fill="none" xmlns="http://www.w3.org/2000/svg">
<path d="M697.094 363.978C700.56 427.828 575.727 557.66 421.864 509.605C350.303 487.253 356.364 450.154 301.95 401.261C269.516 372.12 222.914 350.083 209.953 307.724C198.756 271.162 205.622 231.864 225.034 206.303C268.692 148.816 356.827 109.452 443.669 200.026C530.51 290.6 688.139 199.304 697.094 363.978V363.978Z" fill="#F1F1F1"/>
<path d="M664.579 199.067C652.326 220.935 625.491 223.94 582.499 219.784C550.166 216.653 520.682 214.23 488.346 196.601C465.714 184.27 447.798 167.587 434.723 151.383C420.553 133.83 400.776 113.796 410.471 93.8932C423.795 66.5532 500.846 43.5272 575.665 81.1832C657.854 122.56 676.566 177.695 664.579 199.067V199.067Z" fill="#F1F1F1"/>
<path fill-rule="evenodd" clip-rule="evenodd" d="M591.59 446.795C591.59 420.722 612.722 399.59 638.795 399.59C664.868 399.59 686 420.722 686 446.795H591.59ZM686 446.795C686 472.868 664.868 494 638.795 494C612.722 494 591.59 472.868 591.59 446.795" fill="#00B412"/>
<path d="M655.001 459.477C655.001 459.477 648.922 465.113 638.796 465.113C628.666 465.113 622.592 459.477 622.592 459.477M622.943 433.409V443.272V433.409ZM654.648 433.409V443.272V433.409Z" stroke="white" stroke-width="5.514" stroke-linecap="round" stroke-linejoin="round"/>
<path fill-rule="evenodd" clip-rule="evenodd" d="M253.267 458.533C227.164 458.533 206 437.37 206 411.267C206 385.164 227.164 364 253.267 364C279.37 364 300.533 385.164 300.533 411.267C300.533 437.37 279.37 458.533 253.267 458.533V458.533Z" fill="#00B412"/>
<path d="M266.846 404.796L249.902 422.052L239.73 411.7" stroke="white" stroke-width="4.719" stroke-linecap="round" stroke-linejoin="round"/>
<path d="M249.663 319.832L268.834 300.661C269.532 299.963 269.532 298.831 268.834 298.133C268.136 297.435 267.004 297.435 266.306 298.133L247.135 317.304C246.436 318.003 246.436 319.135 247.134 319.833C247.832 320.531 248.964 320.531 249.663 319.832Z" fill="#E1E4E5"/>
<path d="M251.539 306.106L257.068 300.577C257.766 299.879 257.766 298.747 257.068 298.049C256.37 297.351 255.238 297.351 254.54 298.049L249.011 303.578C248.313 304.277 248.313 305.408 249.011 306.107C249.709 306.805 250.841 306.804 251.539 306.106Z" fill="#E1E4E5"/>
<path d="M690.05 261.037L709.221 241.866C709.919 241.168 709.919 240.036 709.221 239.338C708.523 238.64 707.391 238.64 706.693 239.338L687.522 258.51C686.823 259.208 686.823 260.34 687.521 261.038C688.219 261.736 689.351 261.736 690.05 261.037Z" fill="#E1E4E5"/>
<path d="M691.926 247.311L697.455 241.782C698.153 241.084 698.153 239.952 697.455 239.254C696.757 238.556 695.625 238.556 694.927 239.254L689.398 244.783C688.7 245.482 688.699 246.614 689.398 247.312C690.096 248.01 691.228 248.009 691.926 247.311Z" fill="#E1E4E5"/>
<path d="M524.04 431.659L543.211 412.487C543.909 411.789 543.909 410.657 543.211 409.959C542.513 409.261 541.381 409.261 540.683 409.96L521.512 429.131C520.814 429.829 520.813 430.961 521.511 431.659C522.209 432.357 523.341 432.357 524.04 431.659Z" fill="#E1E4E5"/>
<path d="M525.916 417.932L531.445 412.403C532.143 411.705 532.143 410.573 531.445 409.875C530.747 409.177 529.615 409.177 528.917 409.876L523.388 415.404C522.69 416.103 522.689 417.235 523.388 417.933C524.086 418.631 525.218 418.631 525.916 417.932Z" fill="#E1E4E5"/>
<path d="M354.572 431.659L373.743 412.487C374.441 411.789 374.441 410.657 373.743 409.959C373.045 409.261 371.913 409.261 371.215 409.96L352.044 429.131C351.346 429.829 351.345 430.961 352.043 431.659C352.741 432.357 353.873 432.357 354.572 431.659Z" fill="#E1E4E5"/>
<path d="M356.448 417.932L361.977 412.403C362.675 411.705 362.675 410.573 361.977 409.875C361.279 409.177 360.147 409.177 359.449 409.876L353.92 415.404C353.222 416.103 353.221 417.235 353.92 417.933C354.618 418.631 355.75 418.631 356.448 417.932Z" fill="#E1E4E5"/>
<path fill-rule="evenodd" clip-rule="evenodd" d="M211.96 189.29H216.148C216.633 189.29 217.098 189.483 217.441 189.825C217.784 190.168 217.977 190.633 217.977 191.118V195.306C217.977 195.791 217.784 196.256 217.441 196.599C217.098 196.942 216.633 197.135 216.148 197.135H211.96C211.476 197.133 211.012 196.94 210.669 196.597C210.327 196.254 210.134 195.79 210.132 195.306V191.118C210.132 190.878 210.178 190.64 210.27 190.418C210.362 190.196 210.496 189.994 210.666 189.824C210.836 189.654 211.038 189.52 211.26 189.428C211.482 189.336 211.72 189.289 211.96 189.29V189.29ZM226.482 189.29H230.67C231.675 189.29 232.499 190.114 232.499 191.118V195.306C232.499 195.791 232.306 196.256 231.963 196.599C231.62 196.942 231.155 197.135 230.67 197.135H226.482C225.998 197.133 225.534 196.94 225.191 196.597C224.849 196.254 224.656 195.79 224.654 195.306V191.118C224.654 190.114 225.478 189.29 226.482 189.29ZM241.014 189.29H245.202C246.206 189.29 247.03 190.114 247.03 191.118V195.306C247.03 195.791 246.837 196.256 246.494 196.598C246.152 196.941 245.687 197.134 245.202 197.135H241.014C240.53 197.133 240.065 196.94 239.723 196.597C239.38 196.254 239.187 195.79 239.185 195.306V191.118C239.185 190.878 239.232 190.64 239.324 190.418C239.415 190.196 239.55 189.994 239.72 189.824C239.89 189.654 240.092 189.52 240.314 189.428C240.536 189.336 240.774 189.289 241.014 189.29ZM255.535 189.29H259.724C260.728 189.29 261.552 190.114 261.552 191.118V195.306C261.552 195.791 261.359 196.256 261.016 196.598C260.674 196.941 260.209 197.134 259.724 197.135H255.535C255.049 197.135 254.583 196.942 254.239 196.6C253.895 196.257 253.7 195.792 253.698 195.306V191.118C253.704 190.633 253.899 190.17 254.243 189.828C254.586 189.486 255.05 189.293 255.535 189.29V189.29ZM270.058 189.29H274.247C275.26 189.29 276.084 190.114 276.084 191.118V195.306C276.084 195.547 276.036 195.785 275.943 196.007C275.851 196.229 275.715 196.431 275.545 196.601C275.374 196.771 275.172 196.906 274.949 196.997C274.726 197.089 274.488 197.135 274.247 197.135H270.058C269.574 197.133 269.11 196.94 268.767 196.597C268.425 196.254 268.232 195.79 268.23 195.306V191.118C268.23 190.114 269.054 189.29 270.058 189.29ZM227.015 205.125H231.203C232.207 205.125 233.031 205.949 233.031 206.953V211.151C233.029 211.635 232.836 212.099 232.494 212.441C232.151 212.784 231.687 212.977 231.203 212.979H227.015C226.53 212.979 226.065 212.786 225.722 212.443C225.38 212.1 225.187 211.636 225.186 211.151V206.962C225.185 206.721 225.231 206.482 225.322 206.259C225.414 206.036 225.548 205.834 225.718 205.663C225.888 205.492 226.09 205.357 226.313 205.264C226.536 205.172 226.774 205.125 227.015 205.125V205.125ZM241.536 205.125H245.725C246.729 205.125 247.553 205.949 247.553 206.953V211.151C247.551 211.635 247.358 212.099 247.016 212.441C246.673 212.784 246.209 212.977 245.725 212.979H241.536C241.052 212.977 240.588 212.784 240.246 212.441C239.903 212.099 239.71 211.635 239.708 211.151V206.962C239.707 206.721 239.753 206.482 239.844 206.259C239.935 206.036 240.07 205.834 240.24 205.663C240.41 205.492 240.612 205.357 240.834 205.264C241.057 205.172 241.295 205.125 241.536 205.125V205.125ZM256.059 205.125H260.248C261.261 205.125 262.085 205.949 262.085 206.953V211.151C262.083 211.636 261.888 212.101 261.544 212.444C261.2 212.787 260.734 212.979 260.248 212.979H256.059C255.575 212.977 255.111 212.784 254.769 212.441C254.426 212.099 254.233 211.635 254.231 211.151V206.962C254.231 205.949 255.055 205.125 256.059 205.125V205.125ZM241.014 172.278H245.202C246.206 172.278 247.03 173.102 247.03 174.106V178.294C247.03 178.779 246.837 179.244 246.494 179.586C246.152 179.929 245.687 180.122 245.202 180.123H241.014C240.53 180.121 240.065 179.928 239.723 179.585C239.38 179.242 239.187 178.778 239.185 178.294V174.106C239.185 173.866 239.232 173.628 239.324 173.406C239.415 173.184 239.55 172.982 239.72 172.812C239.89 172.642 240.092 172.508 240.314 172.416C240.536 172.324 240.774 172.277 241.014 172.278V172.278ZM255.535 172.278H259.724C260.728 172.278 261.552 173.102 261.552 174.106V178.294C261.552 178.779 261.359 179.244 261.016 179.586C260.674 179.929 260.209 180.122 259.724 180.123H255.535C255.049 180.123 254.583 179.93 254.239 179.588C253.895 179.245 253.7 178.78 253.698 178.294V174.106C253.704 173.621 253.899 173.158 254.243 172.816C254.586 172.474 255.05 172.281 255.535 172.278V172.278ZM416.014 237.709H420.202C420.687 237.709 421.151 237.902 421.494 238.245C421.837 238.588 422.03 239.052 422.03 239.537V243.726C422.03 244.21 421.837 244.675 421.494 245.018C421.151 245.361 420.687 245.553 420.202 245.554H416.014C415.53 245.552 415.066 245.359 414.723 245.017C414.38 244.674 414.187 244.21 414.185 243.726V239.537C414.185 239.297 414.232 239.059 414.324 238.837C414.415 238.615 414.55 238.413 414.72 238.243C414.89 238.073 415.092 237.939 415.314 237.847C415.536 237.755 415.774 237.708 416.014 237.709V237.709ZM430.535 237.709H434.724C435.728 237.709 436.552 238.533 436.552 239.537V243.726C436.552 244.21 436.359 244.675 436.016 245.018C435.673 245.361 435.209 245.553 434.724 245.554H430.535C430.051 245.552 429.587 245.359 429.245 245.016C428.902 244.674 428.709 244.21 428.707 243.726V239.537C428.707 238.533 429.531 237.709 430.535 237.709ZM445.067 237.709H449.256C450.26 237.709 451.084 238.533 451.084 239.537V243.726C451.084 244.21 450.891 244.675 450.548 245.018C450.205 245.361 449.741 245.553 449.256 245.554H445.067C444.583 245.552 444.119 245.359 443.777 245.016C443.434 244.674 443.241 244.21 443.239 243.726V239.537C443.239 239.297 443.285 239.059 443.377 238.837C443.469 238.615 443.603 238.413 443.773 238.243C443.943 238.073 444.145 237.939 444.367 237.847C444.589 237.755 444.827 237.708 445.067 237.709V237.709ZM459.589 237.709H463.777C464.782 237.709 465.606 238.533 465.606 239.537V243.726C465.606 244.211 465.413 244.675 465.07 245.018C464.727 245.361 464.262 245.554 463.777 245.554H459.589C459.103 245.554 458.638 245.362 458.293 245.019C457.949 244.676 457.754 244.211 457.752 243.726V239.537C457.758 239.052 457.953 238.589 458.297 238.247C458.64 237.905 459.104 237.712 459.589 237.709V237.709ZM474.112 237.709H478.3C479.313 237.709 480.137 238.533 480.137 239.537V243.726C480.137 243.967 480.089 244.205 479.996 244.427C479.904 244.649 479.768 244.851 479.598 245.021C479.427 245.191 479.225 245.325 479.002 245.416C478.779 245.508 478.541 245.555 478.3 245.554H474.112C473.628 245.552 473.164 245.359 472.822 245.016C472.479 244.674 472.286 244.21 472.284 243.726V239.537C472.284 238.533 473.108 237.709 474.112 237.709ZM431.068 253.545H435.257C436.261 253.545 437.085 254.369 437.085 255.373V259.57C437.083 260.054 436.89 260.518 436.548 260.86C436.205 261.203 435.741 261.396 435.257 261.398H431.068C430.583 261.397 430.119 261.205 429.776 260.862C429.433 260.519 429.241 260.055 429.24 259.57V255.382C429.239 255.141 429.285 254.902 429.376 254.679C429.467 254.456 429.602 254.254 429.772 254.083C429.942 253.912 430.144 253.777 430.366 253.684C430.589 253.592 430.827 253.545 431.068 253.545V253.545ZM445.59 253.545H449.778C450.783 253.545 451.607 254.369 451.607 255.373V259.57C451.605 260.054 451.412 260.518 451.069 260.861C450.727 261.203 450.263 261.396 449.778 261.398H445.59C445.106 261.396 444.642 261.203 444.3 260.86C443.957 260.518 443.764 260.054 443.762 259.57V255.382C443.761 255.141 443.807 254.902 443.898 254.679C443.989 254.456 444.124 254.254 444.294 254.083C444.464 253.912 444.666 253.777 444.888 253.684C445.111 253.592 445.349 253.545 445.59 253.545V253.545ZM460.113 253.545H464.302C465.314 253.545 466.138 254.369 466.138 255.373V259.57C466.136 260.055 465.941 260.52 465.597 260.863C465.253 261.205 464.788 261.398 464.302 261.398H460.113C459.629 261.396 459.165 261.203 458.823 260.86C458.48 260.518 458.287 260.054 458.285 259.57V255.382C458.285 254.369 459.109 253.545 460.113 253.545ZM445.067 220.697H449.256C450.26 220.697 451.084 221.521 451.084 222.525V226.714C451.084 227.198 450.891 227.663 450.548 228.006C450.205 228.349 449.741 228.541 449.256 228.542H445.067C444.583 228.54 444.119 228.347 443.777 228.004C443.434 227.662 443.241 227.198 443.239 226.714V222.525C443.239 222.285 443.285 222.047 443.377 221.825C443.469 221.603 443.603 221.401 443.773 221.231C443.943 221.061 444.145 220.927 444.367 220.835C444.589 220.743 444.827 220.696 445.067 220.697V220.697ZM459.589 220.697H463.777C464.782 220.697 465.606 221.521 465.606 222.525V226.714C465.606 227.199 465.413 227.663 465.07 228.006C464.727 228.349 464.262 228.542 463.777 228.542H459.589C459.103 228.542 458.638 228.35 458.293 228.007C457.949 227.664 457.754 227.199 457.752 226.714V222.525C457.758 222.04 457.953 221.577 458.297 221.235C458.64 220.893 459.104 220.7 459.589 220.697V220.697Z" fill="#E1E4E5"/>
<path d="M769.885 234.934C753.881 238.725 736.955 225.153 736.955 225.153C736.955 225.153 745.988 205.441 761.997 201.662C778 197.87 794.921 211.431 794.921 211.431C794.921 211.431 785.889 231.143 769.885 234.934V234.934Z" fill="#F1F1F1"/>
<path d="M328.801 109.702C345.649 121.307 371.389 113.195 371.389 113.195C371.389 113.195 369.795 86.2701 352.935 74.6761C336.087 63.0711 310.359 71.1721 310.359 71.1721C310.359 71.1721 311.952 98.0971 328.801 109.702V109.702Z" fill="#F1F1F1"/>
<path d="M311.57 521.655C327.781 533.076 352.812 525.478 352.812 525.478C352.812 525.478 351.544 499.366 335.322 487.955C319.112 476.534 294.092 484.121 294.092 484.121C294.092 484.121 295.36 510.234 311.57 521.655Z" fill="#F1F1F1"/>
<path d="M718.277 455.878C710.78 455.878 704.703 461.691 704.703 468.862C704.703 476.033 710.78 481.846 718.277 481.846C725.774 481.846 731.851 476.033 731.851 468.862C731.851 461.691 725.774 455.878 718.277 455.878Z" fill="#00B412"/>
<path d="M459 115C451.82 115 446 120.633 446 127.581C446 134.529 451.82 140.162 459 140.162C466.18 140.162 472 134.529 472 127.581C472 120.633 466.18 115 459 115Z" fill="#00B412"/>
<path d="M102.492 315.533C98.9065 315.533 95.9999 312.626 95.9999 309.041C95.9999 305.455 98.9065 302.549 102.492 302.549C106.077 302.549 108.984 305.455 108.984 309.041C108.984 312.626 106.077 315.533 102.492 315.533Z" fill="#FF8B03"/>
<path d="M727.472 157.869C720.627 157.869 715.078 152.32 715.078 145.475C715.078 138.63 720.627 133.081 727.472 133.081C734.317 133.081 739.866 138.63 739.866 145.475C739.866 152.32 734.317 157.869 727.472 157.869Z" fill="#00B412"/>
<path d="M545.61 523.896C537.97 523.896 531.776 517.96 531.776 510.638C531.776 503.316 537.97 497.38 545.61 497.38C553.25 497.38 559.444 503.316 559.444 510.638C559.444 517.96 553.25 523.896 545.61 523.896Z" fill="#E1E4E5"/>
<path d="M187.075 407.458C183.255 407.458 180.158 404.361 180.158 400.541C180.158 396.721 183.255 393.624 187.075 393.624C190.895 393.624 193.992 396.721 193.992 400.541C193.992 404.361 190.895 407.458 187.075 407.458Z" fill="#E1E4E5"/>
<path d="M418.317 539.075C416.036 539.075 414.186 537.225 414.186 534.944C414.186 532.662 416.036 530.813 418.317 530.813C420.598 530.813 422.448 532.662 422.448 534.944C422.448 537.225 420.598 539.075 418.317 539.075Z" fill="#E1E4E5"/>
<path d="M662.185 120.675C658.925 120.675 656.283 118.033 656.283 114.773C656.283 111.514 658.925 108.871 662.185 108.871C665.444 108.871 668.087 111.514 668.087 114.773C668.087 118.033 665.444 120.675 662.185 120.675Z" fill="#E1E4E5"/>
<path d="M121.315 441.85C122.14 444.926 120.314 448.089 117.238 448.913C114.161 449.737 110.999 447.912 110.174 444.835C109.35 441.759 111.176 438.596 114.252 437.772C117.329 436.948 120.491 438.773 121.315 441.85Z" fill="#E1E4E5"/>
<path d="M270.835 127.674C266.598 127.674 263.163 124.239 263.163 120.002C263.163 115.765 266.598 112.33 270.835 112.33C275.072 112.33 278.507 115.765 278.507 120.002C278.507 124.239 275.072 127.674 270.835 127.674Z" fill="#E1E4E5"/>
<path d="M732.508 291.24C729.248 291.24 726.606 289.126 726.606 286.519C726.606 283.912 729.248 281.798 732.508 281.798C735.767 281.798 738.41 283.912 738.41 286.519C738.41 289.126 735.767 291.24 732.508 291.24Z" fill="#E1E4E5"/>
<path d="M546.294 139.593C548.01 145.996 544.21 152.578 537.806 154.294C531.403 156.01 524.822 152.21 523.106 145.806C521.39 139.403 525.19 132.822 531.593 131.106C537.996 129.39 544.578 133.19 546.294 139.593Z" fill="#E1E4E5"/>
<path d="M789.029 250.671H789.183C790.097 263.625 799.731 263.824 799.731 263.824C799.731 263.824 789.108 264.032 789.108 279C789.108 264.032 778.485 263.824 778.485 263.824C778.485 263.824 788.114 263.625 789.029 250.671V250.671ZM145.286 172.278H145.552C147.127 194.947 163.718 195.296 163.718 195.296C163.718 195.296 145.422 195.659 145.422 221.853C145.422 195.659 127.127 195.296 127.127 195.296C127.127 195.296 143.712 194.947 145.286 172.278Z" fill="#E1E4E5"/>
<path d="M291.181 310.589C283.422 251.346 324.305 180.894 411.431 191.579C485.332 200.641 501.351 188.957 533.165 172.309C554.175 161.318 587.042 141.872 613.706 197.479C648.605 270.257 566.76 384.366 493.661 419.363C423.76 452.833 305.254 418.099 291.181 310.589V310.589Z" fill="#00B412"/>
<path d="M386.217 308.577L427.193 349.964L516.622 259.612" stroke="white" stroke-width="39.121" stroke-linecap="round" stroke-linejoin="round"/>
</svg>
