<svg width="900" height="600" viewBox="0 0 900 600" fill="none" xmlns="http://www.w3.org/2000/svg">
<path d="M214.359 475.389C230.779 492.101 261.483 488.578 261.483 488.578C261.483 488.578 265.547 457.958 249.111 441.256C232.692 424.544 202.002 428.058 202.002 428.058C202.002 428.058 197.939 458.677 214.359 475.389Z" fill="#F1F1F1"/>
<path d="M639.439 125.517C622.245 135.325 598.094 125.396 598.094 125.396C598.094 125.396 601.837 99.5692 619.04 89.7732C636.234 79.9652 660.375 89.8832 660.375 89.8832C660.375 89.8832 656.632 115.71 639.439 125.517Z" fill="#F1F1F1"/>
<path d="M324.812 156.133C307.14 174.12 274.092 170.327 274.092 170.327C274.092 170.327 269.719 137.372 287.408 119.396C305.081 101.409 338.112 105.19 338.112 105.19C338.112 105.19 342.485 138.146 324.812 156.133Z" fill="#F1F1F1"/>
<path d="M228.07 326.029C236.448 326.029 243.24 333.16 243.24 341.957C243.24 350.754 236.448 357.885 228.07 357.885C219.692 357.885 212.9 350.754 212.9 341.957C212.9 333.16 219.692 326.029 228.07 326.029Z" fill="#E1E4E5"/>
<path d="M478.5 501C483.194 501 487 504.806 487 509.5C487 514.194 483.194 518 478.5 518C473.806 518 470 514.194 470 509.5C470 504.806 473.806 501 478.5 501Z" fill="#FF0202"/>
<path d="M693.518 403C703.193 403 711.036 410.843 711.036 420.518C711.036 430.193 703.193 438.036 693.518 438.036C683.843 438.036 676 430.193 676 420.518C676 410.843 683.843 403 693.518 403Z" fill="#FF0202"/>
<path d="M708.183 280.366C716.016 280.366 722.366 274.016 722.366 266.183C722.366 258.35 716.016 252 708.183 252C700.35 252 694 258.35 694 266.183C694 274.016 700.35 280.366 708.183 280.366Z" fill="#812B2B"/>
<path d="M247.603 237.757C254.306 237.757 259.739 232.323 259.739 225.621C259.739 218.918 254.306 213.485 247.603 213.485C240.901 213.485 235.467 218.918 235.467 225.621C235.467 232.323 240.901 237.757 247.603 237.757Z" fill="#F89D9D"/>
<path d="M316.324 517.734C320.369 517.734 323.648 514.66 323.648 510.867C323.648 507.074 320.369 504 316.324 504C312.279 504 309 507.074 309 510.867C309 514.66 312.279 517.734 316.324 517.734Z" fill="#E1E4E5"/>
<path d="M664.796 380.776C670.206 380.776 674.592 376.573 674.592 371.388C674.592 366.203 670.206 362 664.796 362C659.386 362 655 366.203 655 371.388C655 376.573 659.386 380.776 664.796 380.776Z" fill="#E1E4E5"/>
<path d="M625.378 490.755C631.661 490.755 636.755 485.661 636.755 479.378C636.755 473.095 631.661 468.001 625.378 468.001C619.095 468.001 614.001 473.095 614.001 479.378C614.001 485.661 619.095 490.755 625.378 490.755Z" fill="#E1E4E5"/>
<path d="M401.025 120.458C403.957 120.458 406.334 117.741 406.334 114.39C406.334 111.039 403.957 108.322 401.025 108.322C398.093 108.322 395.716 111.039 395.716 114.39C395.716 117.741 398.093 120.458 401.025 120.458Z" fill="#E1E4E5"/>
<path d="M656.444 299.39C655.647 302.366 657.413 305.426 660.39 306.224C663.367 307.021 666.426 305.255 667.224 302.278C668.022 299.301 666.255 296.242 663.278 295.444C660.301 294.646 657.242 296.413 656.444 299.39Z" fill="#E1E4E5"/>
<path d="M654.769 233.667C658.958 233.667 662.354 230.271 662.354 226.082C662.354 221.893 658.958 218.497 654.769 218.497C650.58 218.497 647.184 221.893 647.184 226.082C647.184 230.271 650.58 233.667 654.769 233.667Z" fill="#E1E4E5"/>
<path d="M254.159 289.497C257.091 289.497 259.468 287.459 259.468 284.946C259.468 282.433 257.091 280.395 254.159 280.395C251.227 280.395 248.85 282.433 248.85 284.946C248.85 287.459 251.227 289.497 254.159 289.497Z" fill="#E1E4E5"/>
<path d="M510.146 103.265C508.486 109.46 512.162 115.828 518.357 117.488C524.552 119.148 530.92 115.471 532.58 109.276C534.24 103.081 530.564 96.7129 524.369 95.0529C518.174 93.3929 511.806 97.0694 510.146 103.265Z" fill="#E1E4E5"/>
<path d="M162.314 308.103H162.165C161.284 320.589 152 320.781 152 320.781C152 320.781 162.238 320.981 162.238 335.409C162.238 320.981 172.476 320.781 172.476 320.781C172.476 320.781 163.195 320.589 162.314 308.103ZM694.144 149.591H693.888C692.37 171.095 676.381 171.426 676.381 171.426C676.381 171.426 694.013 171.771 694.013 196.618C694.013 171.771 711.645 171.426 711.645 171.426C711.645 171.426 695.662 171.095 694.144 149.591Z" fill="#E1E4E5"/>
<path fill-rule="evenodd" clip-rule="evenodd" d="M553.714 397.505V453.628C553.714 474.3 536.971 491.044 516.299 491.044H329.22C308.548 491.044 291.805 474.3 291.805 453.628V266.55C291.805 245.878 308.548 229.134 329.22 229.134H385.344" fill="#F1F1F1"/>
<path fill-rule="evenodd" clip-rule="evenodd" d="M363.07 155.431H577.119C603.399 155.431 624.685 176.717 624.685 202.997V417.046C624.685 443.326 603.399 464.612 577.119 464.612H363.07C336.79 464.612 315.504 443.326 315.504 417.046V202.997C315.504 176.717 336.79 155.431 363.07 155.431V155.431Z" fill="#FF0202"/>
<path d="M511.158 363.371C517.016 369.229 526.513 369.229 532.371 363.371C538.229 357.513 538.229 348.016 532.371 342.158L511.158 363.371ZM493.071 302.858L482.465 292.251L461.251 313.465L471.858 324.071L493.071 302.858ZM532.371 342.158L493.071 302.858L471.858 324.071L511.158 363.371L532.371 342.158Z" fill="white"/>
<path d="M459.948 312.161L470.555 322.768L491.768 301.555L481.161 290.948L459.948 312.161ZM441.861 251.648C436.004 245.79 426.506 245.79 420.648 251.648C414.79 257.506 414.79 267.003 420.648 272.861L441.861 251.648ZM481.161 290.948L441.861 251.648L420.648 272.861L459.948 312.161L481.161 290.948Z" fill="white"/>
<path d="M420.648 342.158C414.79 348.016 414.79 357.513 420.648 363.371C426.506 369.229 436.003 369.229 441.861 363.371L420.648 342.158ZM481.161 324.071L491.768 313.465L470.555 292.251L459.948 302.858L481.161 324.071ZM441.861 363.371L481.161 324.071L459.948 302.858L420.648 342.158L441.861 363.371Z" fill="white"/>
<path d="M511.158 251.648C517.016 245.79 526.513 245.79 532.371 251.648C538.229 257.506 538.229 267.004 532.371 272.861L511.158 251.648ZM493.071 312.161L482.465 322.768L461.251 301.555L471.858 290.948L493.071 312.161ZM532.371 272.861L493.071 312.161L471.858 290.948L511.158 251.648L532.371 272.861Z" fill="white"/>
</svg>
