<svg width="900" height="600" viewBox="0 0 900 600" fill="none" xmlns="http://www.w3.org/2000/svg"><path d="M169.172 386.777C171.518 446.292 298.588 555.825 437.093 497.864C501.51 470.905 492.659 437.028 538.864 386.948C566.405 357.099 607.704 332.606 616.036 292.195C623.236 257.314 613.446 221.467 593.219 199.453C547.727 149.943 462.565 121.111 389.917 212.668C317.269 304.225 163.14 233.284 169.172 386.777V386.777Z" fill="url(#paint0_linear_12:361)"/><path d="M235.202 210.584C245.553 229.059 268.225 231.598 304.547 228.087C331.863 225.442 356.773 223.395 384.092 208.5C403.213 198.083 418.348 183.988 429.395 170.299C441.367 155.468 458.075 138.543 449.884 121.728C438.628 98.6302 373.531 79.1762 310.32 110.989C240.883 145.947 225.075 192.528 235.202 210.584V210.584Z" fill="url(#paint1_linear_12:361)"/><path d="M150.98 266.006C177.816 279.318 213.434 262.201 213.434 262.201C213.434 262.201 205.518 223.508 178.668 210.215C151.832 196.903 116.228 214.001 116.228 214.001C116.228 214.001 124.144 252.694 150.98 266.006V266.006Z" fill="url(#paint2_linear_12:361)"/><path d="M752.281 307.479C737.701 316.218 716.783 308.14 716.783 308.14C716.783 308.14 719.518 285.896 734.107 277.168C748.688 268.429 769.597 276.497 769.597 276.497C769.597 276.497 766.862 298.74 752.281 307.479V307.479Z" fill="url(#paint3_linear_12:361)"/><path d="M217.525 456.236C222.077 456.236 225.767 452.546 225.767 447.994C225.767 443.442 222.077 439.752 217.525 439.752C212.973 439.752 209.283 443.442 209.283 447.994C209.283 452.546 212.973 456.236 217.525 456.236Z" fill="#E1E4E5"/><path d="M754.34 398.818C760.916 398.818 766.246 393.487 766.246 386.912C766.246 380.336 760.916 375.006 754.34 375.006C747.765 375.006 742.434 380.336 742.434 386.912C742.434 393.487 747.765 398.818 754.34 398.818Z" fill="#E1E4E5"/><path d="M175.551 375.564C180.555 375.564 184.612 371.507 184.612 366.503C184.612 361.499 180.555 357.442 175.551 357.442C170.547 357.442 166.49 361.499 166.49 366.503C166.49 371.507 170.547 375.564 175.551 375.564Z" fill="#E1E4E5"/><path d="M226.281 136.503C231.845 136.503 236.355 131.993 236.355 126.429C236.355 120.865 231.845 116.355 226.281 116.355C220.717 116.355 216.207 120.865 216.207 126.429C216.207 131.993 220.717 136.503 226.281 136.503Z" fill="#E1E4E5"/><path d="M777.908 190.052C777.908 195.048 781.958 199.098 786.954 199.098C791.95 199.098 796 195.048 796 190.052C796 185.056 791.95 181.006 786.954 181.006C781.958 181.006 777.908 185.056 777.908 190.052Z" fill="#E1E4E5"/><path d="M521.763 114.972C528.41 114.972 533.798 109.584 533.798 102.937C533.798 96.2901 528.41 90.9019 521.763 90.9019C515.116 90.9019 509.728 96.2901 509.728 102.937C509.728 109.584 515.116 114.972 521.763 114.972Z" fill="#E1E4E5"/><path d="M208.532 323.717C213.645 323.717 217.789 320.401 217.789 316.311C217.789 312.221 213.645 308.905 208.532 308.905C203.42 308.905 199.275 312.221 199.275 316.311C199.275 320.401 203.42 323.717 208.532 323.717Z" fill="#E1E4E5"/><path d="M685.851 136.358H685.719C684.938 147.423 676.709 147.593 676.709 147.593C676.709 147.593 685.783 147.77 685.783 160.555C685.783 147.77 694.857 147.593 694.857 147.593C694.857 147.593 686.632 147.423 685.851 136.358ZM699.637 425.988H699.51C698.76 437.02 690.86 437.19 690.86 437.19C690.86 437.19 699.572 437.366 699.572 450.113C699.572 437.366 708.284 437.19 708.284 437.19C708.284 437.19 700.386 437.02 699.637 425.988Z" fill="#E1E4E5"/><path d="M411.972 168C403.117 168 396 174.982 396 183.528C396 192.074 403.173 199 412.028 199C420.882 199 428 192.074 428 183.472C428.056 174.982 420.882 168 411.972 168Z" stroke="white" stroke-width="48.925" stroke-linecap="round" stroke-linejoin="round"/><path d="M598.613 281C593.304 281 589 285.304 589 290.613C589 295.922 593.304 300.226 598.613 300.226C603.922 300.226 608.226 295.922 608.226 290.613C608.226 285.304 603.922 281 598.613 281Z" fill="#FF8B03"/><path d="M297.168 443.219C287.183 443.219 279.088 451.314 279.088 461.299C279.088 471.284 287.183 479.379 297.168 479.379C307.153 479.379 315.248 471.284 315.248 461.299C315.248 451.314 307.153 443.219 297.168 443.219Z" fill="#FF8B03"/><path d="M662.352 460.704C654.426 460.704 648 454.278 648 446.352C648 438.426 654.426 432 662.352 432C670.278 432 676.704 438.426 676.704 446.352C676.704 454.278 670.278 460.704 662.352 460.704Z" fill="#FF8B03"/><path d="M168.609 162.218C163.302 162.218 159 157.916 159 152.609C159 147.302 163.302 143 168.609 143C173.916 143 178.218 147.302 178.218 152.609C178.218 157.916 173.916 162.218 168.609 162.218Z" fill="#FF8B03"/><path fill-rule="evenodd" clip-rule="evenodd" d="M366.225 153C362.349 155.872 358.906 159.606 356.155 164.2C343.452 185.409 334.378 208.378 328.934 232.102C308.852 229.392 289.362 225.274 271.077 219.749C290.637 184.907 325.317 159.693 366.225 153V153ZM266.444 228.79C285.529 234.672 305.899 239.047 326.896 241.916C321.447 271.268 321.446 301.372 326.892 330.725C306.216 333.552 286.149 337.839 267.319 343.587C258.785 325.955 254 306.169 254 285.266C254 265.089 258.458 245.953 266.444 228.79V228.79ZM272.108 352.587C291.31 385.58 324.193 409.629 362.985 416.961C360.42 414.564 358.113 411.731 356.156 408.463C343.449 387.248 334.373 364.271 328.929 340.54C309.225 343.2 290.091 347.216 272.108 352.587V352.587ZM338.91 339.314C344.147 361.679 352.755 383.324 364.735 403.324V403.325C375.532 421.359 400.543 421.359 411.34 403.325L411.341 403.324C423.32 383.324 431.928 361.679 437.165 339.314C404.829 335.728 371.244 335.728 338.91 339.314ZM447.146 340.54C441.702 364.271 432.627 387.248 419.92 408.463C417.963 411.73 415.657 414.561 413.094 416.958C451.881 409.621 484.758 385.572 503.957 352.582C485.976 347.213 466.845 343.199 447.146 340.54V340.54ZM508.745 343.581C489.917 337.836 469.854 333.551 449.183 330.725C454.63 301.371 454.628 271.266 449.179 241.913C470.171 239.043 490.536 234.667 509.615 228.785C517.602 245.949 522.062 265.087 522.062 285.266C522.062 306.167 517.278 325.95 508.745 343.581ZM439.242 329.484C405.547 325.671 370.526 325.671 336.834 329.484C331.466 300.959 331.467 271.682 336.838 243.157C370.53 246.969 405.548 246.968 439.237 243.154C444.609 271.68 444.61 300.958 439.242 329.484ZM338.915 233.328C371.249 236.912 404.829 236.911 437.16 233.325C431.922 210.968 423.316 189.331 411.341 169.338C400.527 151.301 375.531 151.306 364.735 169.337V169.338C352.759 189.332 344.153 210.97 338.915 233.328V233.328ZM447.141 232.098C467.218 229.387 486.703 225.269 504.982 219.743C485.422 184.906 450.747 159.696 409.845 153.001C413.721 155.873 417.166 159.606 419.919 164.198L419.92 164.2C432.622 185.408 441.696 208.376 447.141 232.098V232.098Z" fill="#FF8B03"/><path fill-rule="evenodd" clip-rule="evenodd" d="M489 422.7C518.161 422.7 541.8 400.672 541.8 373.5C541.8 346.328 518.161 324.3 489 324.3C459.839 324.3 436.2 346.328 436.2 373.5C436.2 400.672 459.839 422.7 489 422.7V422.7ZM489 435C525.451 435 555 407.465 555 373.5C555 339.534 525.451 312 489 312C452.549 312 423 339.534 423 373.5C423 407.465 452.549 435 489 435Z" fill="white"/><path d="M489 425C519.928 425 545 401.495 545 372.5C545 343.505 519.928 320 489 320C458.072 320 433 343.505 433 372.5C433 401.495 458.072 425 489 425Z" fill="#FF8B03"/><path d="M483 390C469.745 390 459 379.703 459 367C459 354.297 469.745 344 483 344C496.255 344 507 354.297 507 367C507 379.703 496.255 390 483 390Z" stroke="white" stroke-width="6" stroke-linecap="round" stroke-linejoin="round"/><path d="M505.078 383L518.286 393.566C518.826 394.021 519.256 394.568 519.551 395.174C519.845 395.78 519.998 396.431 520 397.09C520.002 397.749 519.853 398.402 519.562 399.009C519.271 399.616 518.844 400.165 518.307 400.623C517.77 401.081 517.133 401.439 516.435 401.675C515.737 401.911 514.992 402.021 514.245 401.997C513.498 401.973 512.764 401.817 512.088 401.537C511.411 401.258 510.805 400.86 510.306 400.37L499 388.594" stroke="white" stroke-width="6" stroke-linecap="round" stroke-linejoin="round"/><defs><linearGradient id="paint0_linear_12:361" x1="340.86" y1="728.718" x2="465.681" y2="-268.593" gradientUnits="userSpaceOnUse"><stop stop-color="white"/><stop offset="1" stop-color="#EEEEEE"/></linearGradient><linearGradient id="paint1_linear_12:361" x1="304.939" y1="330.319" x2="397.207" y2="-84.2958" gradientUnits="userSpaceOnUse"><stop stop-color="white"/><stop offset="1" stop-color="#EEEEEE"/></linearGradient><linearGradient id="paint2_linear_12:361" x1="254.033" y1="307.53" x2="32.688" y2="132.445" gradientUnits="userSpaceOnUse"><stop stop-color="white"/><stop offset="1" stop-color="#EEEEEE"/></linearGradient><linearGradient id="paint3_linear_12:361" x1="695.859" y1="335.608" x2="813.178" y2="226.603" gradientUnits="userSpaceOnUse"><stop stop-color="white"/><stop offset="1" stop-color="#EEEEEE"/></linearGradient></defs></svg>