<svg width="900" height="600" viewBox="0 0 900 600" fill="none" xmlns="http://www.w3.org/2000/svg">
<path d="M645.806 238.607C633.431 246.537 618.72 240.684 597.627 226.667C581.766 216.123 567.183 206.731 555.322 188.685C547.018 176.059 542.355 162.484 540.064 150.493C537.58 137.501 532.879 121.679 543.388 114.059C557.827 103.594 604.041 112.951 632.351 153.083C663.445 197.174 657.906 230.86 645.806 238.607Z" fill="url(#paint0_linear_12:460)"/>
<path d="M722.891 367.562C706.934 375.478 685.756 365.3 685.756 365.3C685.756 365.3 690.463 342.293 706.428 334.389C722.385 326.473 743.555 336.64 743.555 336.64C743.555 336.64 738.848 359.647 722.891 367.562Z" fill="url(#paint1_linear_12:460)"/>
<path d="M205.71 204.9C231.538 220.38 268.593 206.07 268.593 206.07C268.593 206.07 263.748 166.669 237.905 151.206C212.077 135.727 175.037 150.019 175.037 150.019C175.037 150.019 179.883 189.421 205.71 204.9V204.9Z" fill="url(#paint2_linear_12:460)"/>
<path d="M728.192 193.977C719.13 193.977 711.784 201.323 711.784 210.385C711.784 219.447 719.13 226.793 728.192 226.793C737.254 226.793 744.6 219.447 744.6 210.385C744.6 201.323 737.254 193.977 728.192 193.977Z" fill="#FF8B03"/>
<path d="M239.441 256.007C231.981 256.007 225.933 262.055 225.933 269.515C225.933 276.975 231.981 283.023 239.441 283.023C246.901 283.023 252.949 276.975 252.949 269.515C252.949 262.055 246.901 256.007 239.441 256.007Z" fill="#FF8B03"/>
<path d="M309.52 533.336C301.024 533.336 294.137 526.449 294.137 517.953C294.137 509.457 301.024 502.57 309.52 502.57C318.016 502.57 324.903 509.457 324.903 517.953C324.903 526.449 318.016 533.336 309.52 533.336Z" fill="#FF8B03"/>
<path d="M751.446 399.755C747.481 399.755 744.267 396.541 744.267 392.576C744.267 388.611 747.481 385.397 751.446 385.397C755.411 385.397 758.625 388.611 758.625 392.576C758.625 396.541 755.411 399.755 751.446 399.755Z" fill="#FF8B03"/>
<path d="M598.136 504.104C593.038 504.104 588.906 499.972 588.906 494.874C588.906 489.776 593.038 485.644 598.136 485.644C603.234 485.644 607.366 489.776 607.366 494.874C607.366 499.972 603.234 504.104 598.136 504.104Z" fill="#E1E4E5"/>
<path d="M186.816 446.865C179.453 446.865 173.484 440.896 173.484 433.533C173.484 426.17 179.453 420.201 186.816 420.201C194.179 420.201 200.148 426.17 200.148 433.533C200.148 440.896 194.179 446.865 186.816 446.865Z" fill="#E1E4E5"/>
<path d="M740.421 517.458C734.817 517.458 730.274 512.915 730.274 507.311C730.274 501.707 734.817 497.164 740.421 497.164C746.025 497.164 750.568 501.707 750.568 507.311C750.568 512.915 746.025 517.458 740.421 517.458Z" fill="#E1E4E5"/>
<path d="M743.947 141.13C737.717 141.13 732.666 136.079 732.666 129.849C732.666 123.619 737.717 118.568 743.947 118.568C750.177 118.568 755.228 123.619 755.228 129.849C755.228 136.079 750.177 141.13 743.947 141.13Z" fill="#E1E4E5"/>
<path d="M163.191 293.091C164.639 298.495 161.432 304.05 156.028 305.498C150.624 306.946 145.07 303.739 143.622 298.335C142.174 292.931 145.381 287.376 150.785 285.928C156.189 284.48 161.743 287.687 163.191 293.091Z" fill="#E1E4E5"/>
<path d="M348.185 99.6361C345.857 99.6361 343.969 97.7485 343.969 95.4201C343.969 93.0917 345.857 91.2041 348.185 91.2041C350.513 91.2041 352.401 93.0917 352.401 95.4201C352.401 97.7485 350.513 99.6361 348.185 99.6361Z" fill="#E1E4E5"/>
<path d="M722.15 441.428C716.425 441.428 711.784 437.715 711.784 433.135C711.784 428.555 716.425 424.842 722.15 424.842C727.875 424.842 732.516 428.555 732.516 433.135C732.516 437.715 727.875 441.428 722.15 441.428Z" fill="#E1E4E5"/>
<path d="M689.741 299.549C689.741 181.076 593.59 84.9248 475.117 84.9248C356.645 84.9248 260.493 181.076 260.493 299.549C260.493 418.021 356.645 514.172 475.117 514.172" stroke="#E1E4E5" stroke-width="24" stroke-linecap="round" stroke-linejoin="round"/>
<path d="M539.504 106.387C560.323 169.057 570.84 234.303 570.84 299.549M389.27 106.387H410.732C368.881 231.761 368.881 367.336 410.732 492.71H389.27V106.387Z" stroke="#E1E4E5" stroke-width="24" stroke-linecap="round" stroke-linejoin="round"/>
<path d="M689.741 514.172L668.279 492.71M281.956 385.398V363.936C344.626 384.755 409.872 395.272 475.117 395.272L281.956 385.398ZM281.956 235.164C407.33 193.312 542.905 193.312 668.279 235.164H281.956ZM608.184 501.295C646.115 501.295 676.864 470.546 676.864 432.615C676.864 394.685 646.115 363.936 608.184 363.936C570.253 363.936 539.504 394.685 539.504 432.615C539.504 470.546 570.253 501.295 608.184 501.295V501.295Z" stroke="#E1E4E5" stroke-width="24" stroke-linecap="round" stroke-linejoin="round"/>
<path d="M275.577 186.514H412.504V297.71H275.577V186.514Z" fill="#FF8B03"/>
<path fill-rule="evenodd" clip-rule="evenodd" d="M295.633 213.535C296.829 212.099 298.547 211.198 300.408 211.029C302.268 210.86 304.12 211.437 305.556 212.633L338.808 240.343C340.074 241.398 341.67 241.976 343.318 241.976C344.966 241.976 346.562 241.398 347.828 240.343L381.08 212.633C382.518 211.462 384.36 210.905 386.207 211.083C388.053 211.261 389.755 212.161 390.942 213.586C392.13 215.011 392.707 216.846 392.55 218.695C392.392 220.543 391.512 222.254 390.101 223.458L356.849 251.168C349.011 257.7 337.625 257.7 329.787 251.168L296.535 223.458C295.1 222.262 294.198 220.544 294.029 218.683C293.86 216.822 294.437 214.97 295.633 213.535V213.535Z" fill="white"/>
<path fill-rule="evenodd" clip-rule="evenodd" d="M400.864 195.091H288.136C286.268 195.091 284.476 195.833 283.154 197.154C281.833 198.476 281.091 200.268 281.091 202.136V286.681C281.091 287.606 281.273 288.522 281.627 289.377C281.981 290.232 282.5 291.009 283.154 291.663C283.808 292.318 284.585 292.837 285.44 293.191C286.295 293.545 287.211 293.727 288.136 293.727H400.864C401.789 293.727 402.705 293.545 403.56 293.191C404.415 292.837 405.192 292.318 405.846 291.663C406.5 291.009 407.019 290.232 407.373 289.377C407.727 288.522 407.909 287.606 407.909 286.681V202.136C407.909 200.268 407.167 198.476 405.846 197.154C404.524 195.833 402.732 195.091 400.864 195.091V195.091ZM288.136 181C276.463 181 267 190.463 267 202.136V286.681C267 298.355 276.463 307.818 288.136 307.818H400.864C412.537 307.818 422 298.355 422 286.681V202.136C422 190.463 412.537 181 400.864 181H288.136V181Z" fill="#FF8B03"/>
<path d="M617.577 48.5142H754.504V159.71H617.577V48.5142Z" fill="#E1E4E5"/>
<path fill-rule="evenodd" clip-rule="evenodd" d="M742.864 57.091H630.136C628.268 57.091 626.476 57.8332 625.154 59.1544C623.833 60.4756 623.091 62.2676 623.091 64.136V148.681C623.091 149.606 623.273 150.522 623.627 151.377C623.981 152.232 624.5 153.009 625.154 153.663C625.808 154.318 626.585 154.837 627.44 155.191C628.295 155.545 629.211 155.727 630.136 155.727H742.864C743.789 155.727 744.705 155.545 745.56 155.191C746.415 154.837 747.192 154.318 747.846 153.663C748.5 153.009 749.019 152.232 749.373 151.377C749.727 150.522 749.909 149.606 749.909 148.681V64.136C749.909 62.2676 749.167 60.4756 747.846 59.1544C746.524 57.8332 744.732 57.091 742.864 57.091ZM630.136 43C618.463 43 609 52.463 609 64.136V148.681C609 160.355 618.463 169.818 630.136 169.818H742.864C754.537 169.818 764 160.355 764 148.681V64.136C764 52.463 754.537 43 742.864 43H630.136V43Z" fill="#E1E4E5"/>
<path fill-rule="evenodd" clip-rule="evenodd" d="M638.815 73.717C640.011 72.2816 641.729 71.3802 643.59 71.2111C645.451 71.0419 647.302 71.6188 648.738 72.815L681.99 100.525C683.256 101.58 684.852 102.158 686.5 102.158C688.148 102.158 689.744 101.58 691.01 100.525L724.262 72.815C725.7 71.6437 727.542 71.0868 729.389 71.2652C731.235 71.4435 732.937 72.3427 734.124 73.7677C735.312 75.1927 735.889 77.0285 735.732 78.8767C735.574 80.7249 734.694 82.4365 733.283 83.64L700.031 111.35C692.193 117.882 680.807 117.882 672.969 111.35L639.717 83.64C638.282 82.4437 637.38 80.7262 637.211 78.8653C637.042 77.0044 637.619 75.1525 638.815 73.717V73.717Z" fill="white"/>
<path d="M576.445 335H542C507.758 335 480 307.465 480 273.5C480 239.535 507.758 212 542 212C576.242 212 604 239.535 604 273.5V283.75C604 293.185 596.289 300.833 586.778 300.833C577.266 300.833 569.556 293.185 569.556 283.75V273.5C569.556 258.404 557.218 246.167 542 246.167C526.782 246.167 514.444 258.404 514.444 273.5C514.444 288.596 526.782 300.833 542 300.833C557.218 300.833 569.556 288.596 569.556 273.5" stroke="#FF8B03" stroke-width="20" stroke-linecap="round" stroke-linejoin="round"/>
<defs>
<linearGradient id="paint0_linear_12:460" x1="563.986" y1="289.136" x2="642.955" y2="5.12321" gradientUnits="userSpaceOnUse">
<stop stop-color="white"/>
<stop offset="1" stop-color="#EEEEEE"/>
</linearGradient>
<linearGradient id="paint1_linear_12:460" x1="661.616" y1="392.253" x2="793.228" y2="288.147" gradientUnits="userSpaceOnUse">
<stop stop-color="white"/>
<stop offset="1" stop-color="#EEEEEE"/>
</linearGradient>
<linearGradient id="paint2_linear_12:460" x1="305.658" y1="254.729" x2="97.837" y2="61.6358" gradientUnits="userSpaceOnUse">
<stop stop-color="white"/>
<stop offset="1" stop-color="#EEEEEE"/>
</linearGradient>
</defs>
</svg>
