<svg width="900" height="600" viewBox="0 0 900 600" fill="none" xmlns="http://www.w3.org/2000/svg"><path d="M692.038 345.07C695.122 401.908 583.999 517.482 447.032 474.704C383.33 454.807 388.726 421.782 340.287 378.258C311.415 352.317 269.931 332.701 258.393 294.994C248.426 262.447 254.538 227.464 271.818 204.71C310.681 153.536 389.138 118.495 466.443 199.123C543.747 279.75 684.066 198.48 692.038 345.07V345.07Z" fill="#F1F1F1"/><path d="M649.19 204.731C639.036 222.853 616.798 225.343 581.17 221.899C554.376 219.305 529.941 217.297 503.145 202.687C484.389 192.468 469.542 178.643 458.706 165.215C446.964 150.668 430.574 134.066 438.609 117.573C449.651 94.9162 513.503 75.8332 575.507 107.039C643.617 141.329 659.124 187.02 649.19 204.731Z" fill="#F1F1F1"/><path d="M373.947 476.36C345.184 436.121 315.727 393.353 277.161 372.288C237.382 350.55 230.046 363.948 227.293 385.248C224.539 406.547 236.812 457.014 291.099 485.728C345.4 514.45 400.86 514.02 373.947 476.36Z" fill="#F1F1F1"/><path d="M688.482 244.223C675.56 247.284 661.893 236.326 661.893 236.326C661.893 236.326 669.186 220.41 682.113 217.358C695.034 214.297 708.697 225.246 708.697 225.246C708.697 225.246 701.404 241.162 688.482 244.223V244.223Z" fill="#F1F1F1"/><path d="M362.385 114.139C375.988 123.509 396.772 116.959 396.772 116.959C396.772 116.959 395.485 95.2191 381.872 85.8591C368.268 76.4891 347.494 83.0291 347.494 83.0291C347.494 83.0291 348.781 104.769 362.385 114.139V114.139Z" fill="#F1F1F1"/><path d="M189.276 289.055C204.024 304.066 231.602 300.901 231.602 300.901C231.602 300.901 235.252 273.399 220.49 258.398C205.742 243.387 178.177 246.543 178.177 246.543C178.177 246.543 174.528 274.045 189.276 289.055V289.055Z" fill="#F1F1F1"/><path d="M695.96 361C689.907 361 685 365.694 685 371.484C685 377.274 689.907 381.968 695.96 381.968C702.013 381.968 706.92 377.274 706.92 371.484C706.92 365.694 702.013 361 695.96 361Z" fill="#FF8B03"/><path d="M441.773 484C433.614 484 427 490.4 427 498.296C427 506.191 433.614 512.592 441.773 512.592C449.932 512.592 456.546 506.191 456.546 498.296C456.546 490.4 449.932 484 441.773 484Z" fill="#FF8B03"/><path d="M232.242 227.484C229.347 227.484 227 225.137 227 222.242C227 219.347 229.347 217 232.242 217C235.137 217 237.484 219.347 237.484 222.242C237.484 225.137 235.137 227.484 232.242 227.484Z" fill="#FF8B03"/><path d="M697.007 157.014C691.48 157.014 687 152.534 687 147.007C687 141.48 691.48 137 697.007 137C702.534 137 707.014 141.48 707.014 147.007C707.014 152.534 702.534 157.014 697.007 157.014Z" fill="#FF8B03"/><path d="M683 452C678.029 452 674 447.971 674 443C674 438.029 678.029 434 683 434C687.971 434 692 438.029 692 443C692 447.971 687.971 452 683 452Z" fill="#E1E4E5"/><path d="M227.068 348.934C221.84 348.934 217.601 344.695 217.601 339.467C217.601 334.238 221.84 330 227.068 330C232.297 330 236.535 334.238 236.535 339.467C236.535 344.695 232.297 348.934 227.068 348.934Z" fill="#E1E4E5"/><path d="M630.336 490.672C628.493 490.672 627 489.178 627 487.336C627 485.494 628.493 484 630.336 484C632.178 484 633.672 485.494 633.672 487.336C633.672 489.178 632.178 490.672 630.336 490.672Z" fill="#E1E4E5"/><path d="M686.765 90.53C684.133 90.53 682 88.3966 682 85.765C682 83.1334 684.133 81 686.765 81C689.396 81 691.53 83.1334 691.53 85.765C691.53 88.3966 689.396 90.53 686.765 90.53Z" fill="#E1E4E5"/><path d="M558.202 506.498C558.868 508.983 557.393 511.536 554.909 512.202C552.425 512.868 549.871 511.393 549.205 508.909C548.54 506.425 550.014 503.871 552.498 503.205C554.983 502.54 557.536 504.014 558.202 506.498Z" fill="#E1E4E5"/><path d="M238.195 159.39C234.774 159.39 232 156.616 232 153.195C232 149.774 234.774 147 238.195 147C241.616 147 244.39 149.774 244.39 153.195C244.39 156.616 241.616 159.39 238.195 159.39Z" fill="#E1E4E5"/><path d="M621.765 98.624C619.133 98.624 617 96.9173 617 94.812C617 92.7067 619.133 91 621.765 91C624.396 91 626.53 92.7067 626.53 94.812C626.53 96.9173 624.396 98.624 621.765 98.624Z" fill="#E1E4E5"/><path d="M469.23 76.361C470.615 81.5308 467.547 86.8447 462.377 88.23C457.207 89.6152 451.893 86.5472 450.508 81.3774C449.123 76.2076 452.191 70.8936 457.361 69.5084C462.531 68.1231 467.844 71.1911 469.23 76.361Z" fill="#E1E4E5"/><path d="M696.249 263.331H696.373C697.111 273.791 704.89 273.952 704.89 273.952C704.89 273.952 696.312 274.119 696.312 286.205C696.312 274.119 687.735 273.952 687.735 273.952C687.735 273.952 695.51 273.791 696.249 263.331V263.331ZM299.662 119H299.877C301.148 137.304 314.545 137.586 314.545 137.586C314.545 137.586 299.772 137.879 299.772 159.029C299.772 137.879 285 137.586 285 137.586C285 137.586 298.391 137.304 299.662 119V119Z" fill="#E1E4E5"/><path fill-rule="evenodd" clip-rule="evenodd" d="M425.862 131C421.986 133.872 418.543 137.606 415.792 142.2C403.089 163.409 394.015 186.378 388.571 210.102C368.489 207.392 348.999 203.274 330.714 197.749C350.274 162.907 384.954 137.693 425.862 131V131ZM326.081 206.79C345.166 212.672 365.536 217.047 386.533 219.916C381.084 249.268 381.083 279.372 386.529 308.725C365.853 311.552 345.786 315.839 326.956 321.587C318.422 303.955 313.637 284.169 313.637 263.266C313.637 243.089 318.095 223.953 326.081 206.79V206.79ZM331.745 330.587C350.947 363.58 383.83 387.629 422.622 394.961C420.057 392.564 417.75 389.731 415.793 386.463C403.086 365.248 394.01 342.271 388.566 318.54C368.862 321.2 349.728 325.216 331.745 330.587V330.587ZM398.547 317.314C403.784 339.679 412.392 361.324 424.372 381.324V381.325C435.169 399.359 460.18 399.359 470.977 381.325L470.978 381.324C482.957 361.324 491.565 339.679 496.802 317.314C464.466 313.728 430.881 313.728 398.547 317.314ZM506.783 318.54C501.339 342.271 492.264 365.248 479.557 386.463C477.6 389.73 475.294 392.561 472.731 394.958C511.518 387.621 544.395 363.572 563.594 330.582C545.613 325.213 526.482 321.199 506.783 318.54V318.54ZM568.382 321.581C549.554 315.836 529.491 311.551 508.82 308.725C514.267 279.371 514.265 249.266 508.816 219.913C529.808 217.043 550.173 212.667 569.252 206.785C577.239 223.949 581.699 243.087 581.699 263.266C581.699 284.167 576.915 303.95 568.382 321.581ZM498.879 307.484C465.184 303.671 430.163 303.671 396.471 307.484C391.103 278.959 391.104 249.682 396.475 221.157C430.167 224.969 465.185 224.968 498.874 221.154C504.246 249.68 504.247 278.958 498.879 307.484ZM398.552 211.328C430.886 214.912 464.466 214.911 496.797 211.325C491.559 188.968 482.953 167.331 470.978 147.338C460.164 129.301 435.168 129.306 424.372 147.337V147.338C412.396 167.332 403.79 188.97 398.552 211.328V211.328ZM506.778 210.098C526.855 207.387 546.34 203.269 564.619 197.743C545.059 162.906 510.384 137.696 469.482 131.001C473.358 133.873 476.803 137.606 479.556 142.198L479.557 142.2C492.259 163.408 501.333 186.376 506.778 210.098V210.098Z" fill="#FF8B03"/><path fill-rule="evenodd" clip-rule="evenodd" d="M547 398.7C576.161 398.7 599.8 376.672 599.8 349.5C599.8 322.328 576.161 300.3 547 300.3C517.839 300.3 494.2 322.328 494.2 349.5C494.2 376.672 517.839 398.7 547 398.7V398.7ZM547 411C583.451 411 613 383.465 613 349.5C613 315.534 583.451 288 547 288C510.549 288 481 315.534 481 349.5C481 383.465 510.549 411 547 411Z" fill="white"/><path d="M547 401C577.928 401 603 377.495 603 348.5C603 319.505 577.928 296 547 296C516.072 296 491 319.505 491 348.5C491 377.495 516.072 401 547 401Z" fill="#FF8B03"/><path fill-rule="evenodd" clip-rule="evenodd" d="M541.368 334.254C539.535 337.17 535.48 338.167 532.311 336.48C529.142 334.793 528.059 331.062 529.892 328.146C533.32 322.692 539.745 319 547.114 319C558.097 319 567 327.193 567 337.3C567 343.996 562.536 349.463 557.057 352.55C552.655 355.03 555.4 361.7 547.096 361.7C543.435 361.7 540.468 358.969 540.468 355.6C540.468 355.386 540.48 355.174 540.503 354.966C540.687 351.74 542.25 349.115 543.952 347.206C545.75 345.19 548.113 343.545 549.92 342.556C559.974 337.056 547.711 325.804 541.368 334.254ZM547.096 367.8C543.435 367.8 540.468 370.531 540.468 373.9C540.468 377.269 543.435 380 547.096 380C550.757 380 553.725 377.269 553.725 373.9C553.725 370.531 550.757 367.8 547.096 367.8Z" fill="white"/></svg>