<svg width="900" height="600" viewBox="0 0 900 600" fill="none" xmlns="http://www.w3.org/2000/svg">
<path d="M692.038 345.07C695.122 401.908 583.999 517.482 447.032 474.704C383.33 454.807 388.726 421.782 340.287 378.258C311.415 352.317 269.931 332.701 258.393 294.994C248.426 262.447 254.538 227.464 271.818 204.71C310.681 153.536 389.138 118.495 466.443 199.123C543.747 279.75 684.066 198.48 692.038 345.07V345.07Z" fill="url(#paint0_linear_9:3)"/>
<path d="M649.19 204.731C639.036 222.853 616.798 225.343 581.17 221.899C554.376 219.305 529.941 217.297 503.145 202.687C484.389 192.468 469.542 178.643 458.706 165.215C446.964 150.668 430.574 134.066 438.609 117.573C449.651 94.9162 513.503 75.8332 575.507 107.039C643.617 141.329 659.124 187.02 649.19 204.731Z" fill="url(#paint1_linear_9:3)"/>
<path d="M373.947 476.36C345.184 436.121 315.727 393.353 277.161 372.288C237.382 350.55 230.046 363.948 227.293 385.248C224.539 406.547 236.812 457.014 291.099 485.728C345.4 514.45 400.86 514.02 373.947 476.36Z" fill="url(#paint2_linear_9:3)"/>
<path d="M688.482 244.223C675.56 247.284 661.893 236.326 661.893 236.326C661.893 236.326 669.186 220.41 682.113 217.358C695.034 214.297 708.697 225.246 708.697 225.246C708.697 225.246 701.404 241.162 688.482 244.223V244.223Z" fill="url(#paint3_linear_9:3)"/>
<path d="M362.385 114.139C375.988 123.509 396.772 116.959 396.772 116.959C396.772 116.959 395.485 95.2191 381.872 85.8591C368.268 76.4891 347.494 83.0291 347.494 83.0291C347.494 83.0291 348.781 104.769 362.385 114.139V114.139Z" fill="url(#paint4_linear_9:3)"/>
<path d="M189.276 289.055C204.024 304.066 231.602 300.901 231.602 300.901C231.602 300.901 235.252 273.399 220.49 258.398C205.742 243.387 178.177 246.543 178.177 246.543C178.177 246.543 174.528 274.045 189.276 289.055V289.055Z" fill="url(#paint5_linear_9:3)"/>
<path d="M662.453 361.981C656.4 361.981 651.493 366.675 651.493 372.465C651.493 378.255 656.4 382.949 662.453 382.949C668.506 382.949 673.413 378.255 673.413 372.465C673.413 366.675 668.506 361.981 662.453 361.981Z" fill="#FF8B03"/>
<path d="M288.853 410.587C280.694 410.587 274.08 416.987 274.08 424.883C274.08 432.778 280.694 439.179 288.853 439.179C297.012 439.179 303.626 432.778 303.626 424.883C303.626 416.987 297.012 410.587 288.853 410.587Z" fill="#FF8B03"/>
<path d="M268.839 255.238C265.944 255.238 263.597 252.891 263.597 249.996C263.597 247.101 265.944 244.754 268.839 244.754C271.734 244.754 274.081 247.101 274.081 249.996C274.081 252.891 271.734 255.238 268.839 255.238Z" fill="#FF8B03"/>
<path d="M677.027 176.625C671.5 176.625 667.02 172.145 667.02 166.618C667.02 161.092 671.5 156.611 677.027 156.611C682.554 156.611 687.034 161.092 687.034 166.618C687.034 172.145 682.554 176.625 677.027 176.625Z" fill="#FF8B03"/>
<path d="M660 467C655.029 467 651 462.971 651 458C651 453.029 655.029 449 660 449C664.971 449 669 453.029 669 458C669 462.971 664.971 467 660 467Z" fill="#E1E4E5"/>
<path d="M227.068 348.934C221.84 348.934 217.601 344.695 217.601 339.467C217.601 334.238 221.84 330 227.068 330C232.297 330 236.535 334.238 236.535 339.467C236.535 344.695 232.297 348.934 227.068 348.934Z" fill="#E1E4E5"/>
<path d="M334.6 476.348C332.758 476.348 331.264 474.854 331.264 473.012C331.264 471.169 332.758 469.676 334.6 469.676C336.442 469.676 337.936 471.169 337.936 473.012C337.936 474.854 336.442 476.348 334.6 476.348Z" fill="#E1E4E5"/>
<path d="M589.545 140.87C586.913 140.87 584.78 138.736 584.78 136.105C584.78 133.473 586.913 131.34 589.545 131.34C592.177 131.34 594.31 133.473 594.31 136.105C594.31 138.736 592.177 140.87 589.545 140.87Z" fill="#E1E4E5"/>
<path d="M289.787 302.617C290.453 305.101 288.979 307.655 286.494 308.321C284.01 308.986 281.456 307.512 280.791 305.028C280.125 302.543 281.599 299.99 284.084 299.324C286.568 298.658 289.121 300.133 289.787 302.617Z" fill="#E1E4E5"/>
<path d="M290.759 204.726C287.338 204.726 284.564 201.952 284.564 198.531C284.564 195.11 287.338 192.336 290.759 192.336C294.181 192.336 296.954 195.11 296.954 198.531C296.954 201.952 294.181 204.726 290.759 204.726Z" fill="#E1E4E5"/>
<path d="M669.602 312.422C666.97 312.422 664.837 310.715 664.837 308.61C664.837 306.505 666.97 304.798 669.602 304.798C672.234 304.798 674.367 306.505 674.367 308.61C674.367 310.715 672.234 312.422 669.602 312.422Z" fill="#E1E4E5"/>
<path d="M478.532 99.8863C479.917 105.056 476.849 110.37 471.679 111.755C466.509 113.141 461.195 110.073 459.81 104.903C458.425 99.733 461.493 94.419 466.663 93.0338C471.833 91.6485 477.146 94.7165 478.532 99.8863Z" fill="#E1E4E5"/>
<path d="M725.359 286.154H725.483C726.221 296.614 734 296.775 734 296.775C734 296.775 725.422 296.942 725.422 309.028C725.422 296.942 716.845 296.775 716.845 296.775C716.845 296.775 724.62 296.614 725.359 286.154V286.154ZM328.772 141.823H328.987C330.258 160.127 343.655 160.409 343.655 160.409C343.655 160.409 328.882 160.702 328.882 181.852C328.882 160.702 314.11 160.409 314.11 160.409C314.11 160.409 327.501 160.127 328.772 141.823V141.823Z" fill="#E1E4E5"/>
<path fill-rule="evenodd" clip-rule="evenodd" d="M425.862 131C421.986 133.872 418.543 137.606 415.792 142.2C403.089 163.409 394.015 186.378 388.571 210.102C368.489 207.392 348.999 203.274 330.714 197.749C350.274 162.907 384.954 137.693 425.862 131V131ZM326.081 206.79C345.166 212.672 365.536 217.047 386.533 219.916C381.084 249.268 381.083 279.372 386.529 308.725C365.853 311.552 345.786 315.839 326.956 321.587C318.422 303.955 313.637 284.169 313.637 263.266C313.637 243.089 318.095 223.953 326.081 206.79V206.79ZM331.745 330.587C350.947 363.58 383.83 387.629 422.622 394.961C420.057 392.564 417.75 389.731 415.793 386.463C403.086 365.248 394.01 342.271 388.566 318.54C368.862 321.2 349.728 325.216 331.745 330.587V330.587ZM398.547 317.314C403.784 339.679 412.392 361.324 424.372 381.324V381.325C435.169 399.359 460.18 399.359 470.977 381.325L470.978 381.324C482.957 361.324 491.565 339.679 496.802 317.314C464.466 313.728 430.881 313.728 398.547 317.314ZM506.783 318.54C501.339 342.271 492.264 365.248 479.557 386.463C477.6 389.73 475.294 392.561 472.731 394.958C511.518 387.621 544.395 363.572 563.594 330.582C545.613 325.213 526.482 321.199 506.783 318.54V318.54ZM568.382 321.581C549.554 315.836 529.491 311.551 508.82 308.725C514.267 279.371 514.265 249.266 508.816 219.913C529.808 217.043 550.173 212.667 569.252 206.785C577.239 223.949 581.699 243.087 581.699 263.266C581.699 284.167 576.915 303.95 568.382 321.581ZM498.879 307.484C465.184 303.671 430.163 303.671 396.471 307.484C391.103 278.959 391.104 249.682 396.475 221.157C430.167 224.969 465.185 224.968 498.874 221.154C504.246 249.68 504.247 278.958 498.879 307.484ZM398.552 211.328C430.886 214.912 464.466 214.911 496.797 211.325C491.559 188.968 482.953 167.331 470.978 147.338C460.164 129.301 435.168 129.306 424.372 147.337V147.338C412.396 167.332 403.79 188.97 398.552 211.328V211.328ZM506.778 210.098C526.855 207.387 546.34 203.269 564.619 197.743C545.059 162.906 510.384 137.696 469.482 131.001C473.358 133.873 476.803 137.606 479.556 142.198L479.557 142.2C492.259 163.408 501.333 186.376 506.778 210.098V210.098Z" fill="#FF8B03"/>
<path fill-rule="evenodd" clip-rule="evenodd" d="M547 398.7C576.161 398.7 599.8 376.672 599.8 349.5C599.8 322.328 576.161 300.3 547 300.3C517.839 300.3 494.2 322.328 494.2 349.5C494.2 376.672 517.839 398.7 547 398.7V398.7ZM547 411C583.451 411 613 383.465 613 349.5C613 315.534 583.451 288 547 288C510.549 288 481 315.534 481 349.5C481 383.465 510.549 411 547 411Z" fill="white"/>
<path d="M547 401C577.928 401 603 377.495 603 348.5C603 319.505 577.928 296 547 296C516.072 296 491 319.505 491 348.5C491 377.495 516.072 401 547 401Z" fill="#FF8B03"/>
<path fill-rule="evenodd" clip-rule="evenodd" d="M541.368 334.254C539.535 337.17 535.48 338.167 532.311 336.48C529.142 334.793 528.059 331.062 529.892 328.146C533.32 322.692 539.745 319 547.114 319C558.097 319 567 327.193 567 337.3C567 343.996 562.536 349.463 557.057 352.55C552.655 355.03 555.4 361.7 547.096 361.7C543.435 361.7 540.468 358.969 540.468 355.6C540.468 355.386 540.48 355.174 540.503 354.966C540.687 351.74 542.25 349.115 543.952 347.206C545.75 345.19 548.113 343.545 549.92 342.556C559.974 337.056 547.711 325.804 541.368 334.254ZM547.096 367.8C543.435 367.8 540.468 370.531 540.468 373.9C540.468 377.269 543.435 380 547.096 380C550.757 380 553.725 377.269 553.725 373.9C553.725 370.531 550.757 367.8 547.096 367.8Z" fill="white"/>
<defs>
<linearGradient id="paint0_linear_9:3" x1="559.222" y1="685.768" x2="351.36" y2="-252.035" gradientUnits="userSpaceOnUse">
<stop stop-color="white"/>
<stop offset="1" stop-color="#EEEEEE"/>
</linearGradient>
<linearGradient id="paint1_linear_9:3" x1="580.786" y1="322.179" x2="490.28" y2="-84.5157" gradientUnits="userSpaceOnUse">
<stop stop-color="white"/>
<stop offset="1" stop-color="#EEEEEE"/>
</linearGradient>
<linearGradient id="paint2_linear_9:3" x1="341.83" y1="608.455" x2="247.461" y2="172.047" gradientUnits="userSpaceOnUse">
<stop stop-color="white"/>
<stop offset="1" stop-color="#EEEEEE"/>
</linearGradient>
<linearGradient id="paint3_linear_9:3" x1="639.822" y1="251.834" x2="752.939" y2="198.394" gradientUnits="userSpaceOnUse">
<stop stop-color="white"/>
<stop offset="1" stop-color="#EEEEEE"/>
</linearGradient>
<linearGradient id="paint4_linear_9:3" x1="415.377" y1="144.884" x2="308.291" y2="31.9651" gradientUnits="userSpaceOnUse">
<stop stop-color="white"/>
<stop offset="1" stop-color="#EEEEEE"/>
</linearGradient>
<linearGradient id="paint5_linear_9:3" x1="248.118" y1="340.328" x2="141.498" y2="173.192" gradientUnits="userSpaceOnUse">
<stop stop-color="white"/>
<stop offset="1" stop-color="#EEEEEE"/>
</linearGradient>
</defs>
</svg>
